<?xml version="1.0" encoding="UTF-8"?><svg id="Capa_1" xmlns="http://www.w3.org/2000/svg" viewBox="0 0 1920 1080"><defs><style>.cls-1{stroke-dasharray:0 0 12.06 12.06;}.cls-1,.cls-2,.cls-3,.cls-4,.cls-5,.cls-6,.cls-7,.cls-8,.cls-9,.cls-10{fill:none;stroke-miterlimit:10;}.cls-1,.cls-2,.cls-5,.cls-6,.cls-7,.cls-8,.cls-9,.cls-10{stroke:#000;}.cls-2{stroke-width:3px;}.cls-11{fill:#f7931e;}.cls-12{fill:red;}.cls-13{fill:#8b3800;}.cls-14{fill:#0cba0c;}.cls-3{stroke:#8b3800;stroke-dasharray:0 0 11.93 11.93;}.cls-3,.cls-4{stroke-width:2px;}.cls-4{stroke:#1b1464;}.cls-15{opacity:.48;}.cls-16{opacity:.5;}.cls-6{stroke-dasharray:0 0 11.95 11.95;}.cls-7{stroke-dasharray:0 0 11.83 11.83;}.cls-8{stroke-dasharray:0 0 11.92 11.92;}.cls-9{stroke-dasharray:0 0 11.92 11.92;}.cls-10{stroke-dasharray:0 0 11.92 11.92;}.cls-17{fill:#509fef;}.cls-17,.cls-18,.cls-19,.cls-20{opacity:.68;}.cls-18{fill:#bad6f7;}.cls-19{fill:#8cc0f4;}.cls-20{fill:#045bb2;}.cls-21{fill:#664f38;opacity:.62;}</style></defs><rect class="cls-18" x="-18" y="900" width="2060" height="80"/><rect class="cls-21" x="-18" y="980" width="2060" height="100"/><rect class="cls-19" x="-18" y="660" width="2060" height="240"/><rect class="cls-17" x="-18" y="340" width="2060" height="320"/><rect class="cls-20" x="-18" y="-97" width="2060" height="437"/><g><polyline class="cls-2" points="1811.39 980 143.5 980 143.5 198.11"/><path d="M1829.5,980c-8.52-3.16-19.09-8.55-25.64-14.27l5.16,14.27-5.16,14.26c6.55-5.71,17.12-11.11,25.64-14.26Z"/><path d="M143.5,180c3.16,8.52,8.55,19.09,14.27,25.64l-14.27-5.16-14.26,5.16c5.71-6.55,11.11-17.12,14.26-25.64Z"/></g><line class="cls-2" x1="132.5" y1="900" x2="153.57" y2="900"/><line class="cls-2" x1="132.5" y1="820" x2="153.57" y2="820"/><line class="cls-2" x1="132.5" y1="740" x2="153.57" y2="740"/><line class="cls-2" x1="132.5" y1="660" x2="153.57" y2="660"/><line class="cls-2" x1="132.5" y1="580" x2="153.57" y2="580"/><line class="cls-2" x1="132.5" y1="500" x2="153.57" y2="500"/><line class="cls-2" x1="132.5" y1="420" x2="153.57" y2="420"/><line class="cls-2" x1="132.5" y1="340" x2="153.57" y2="340"/><line class="cls-2" x1="132.5" y1="260" x2="153.57" y2="260"/><g><line class="cls-2" x1="1693.5" y1="994" x2="1693.5" y2="966"/><line class="cls-2" x1="1383.5" y1="994" x2="1383.5" y2="966"/><line class="cls-2" x1="1073.5" y1="994" x2="1073.5" y2="966"/><line class="cls-2" x1="763.5" y1="994" x2="763.5" y2="966"/><line class="cls-2" x1="453.5" y1="994" x2="453.5" y2="966"/></g><g><path d="M380.75,1008.27h1.6l4.89,11.51,4.87-11.51h1.6l-6.47,15.14-6.49-15.14Z"/><path d="M395.1,1012.06c0-1.34,.47-2.34,1.41-3.01s2.04-1,3.31-1c2.78,0,4.42,1.04,4.95,3.11h-1.59c-.28-1.23-1.4-1.85-3.36-1.85-1.38,0-2.34,.41-2.89,1.23-.21,.3-.31,.69-.31,1.15,0,.87,.47,1.55,1.43,2.03,.45,.24,1.4,.55,2.86,.92s2.51,.8,3.16,1.26c.91,.64,1.37,1.55,1.37,2.72,0,1.43-.57,2.52-1.7,3.26-.95,.62-2.13,.93-3.53,.93-3.16,0-5-1.2-5.5-3.61h1.74c.27,1.51,1.52,2.27,3.76,2.27,1.6,0,2.71-.44,3.35-1.33,.25-.34,.37-.81,.37-1.41s-.23-1.08-.69-1.45c-.66-.54-1.92-1.03-3.76-1.47-2.91-.67-4.37-1.92-4.37-3.75Z"/><path d="M407.15,1012.06c0-1.34,.47-2.34,1.41-3.01s2.04-1,3.31-1c2.78,0,4.42,1.04,4.95,3.11h-1.59c-.28-1.23-1.4-1.85-3.36-1.85-1.38,0-2.34,.41-2.89,1.23-.21,.3-.31,.69-.31,1.15,0,.87,.47,1.55,1.43,2.03,.45,.24,1.4,.55,2.86,.92s2.51,.8,3.16,1.26c.91,.64,1.37,1.55,1.37,2.72,0,1.43-.57,2.52-1.7,3.26-.95,.62-2.13,.93-3.53,.93-3.16,0-5-1.2-5.5-3.61h1.74c.27,1.51,1.52,2.27,3.76,2.27,1.6,0,2.71-.44,3.35-1.33,.25-.34,.37-.81,.37-1.41s-.23-1.08-.69-1.45c-.66-.54-1.92-1.03-3.76-1.47-2.91-.67-4.37-1.92-4.37-3.75Z"/><path d="M434.09,1021.48c-.95,.84-2.22,1.26-3.8,1.26s-2.87-.42-3.82-1.26c-1.01-.89-1.51-2.11-1.51-3.65v-9.55h1.47v9.76c0,1.07,.39,1.9,1.17,2.48,.68,.5,1.58,.76,2.7,.76,1.74,0,2.92-.59,3.53-1.76,.21-.41,.31-.9,.31-1.47v-9.76h1.47v9.55c0,1.55-.5,2.76-1.51,3.65Z"/><path d="M444.82,1016.77c0-.6-.14-1.12-.41-1.54-.27-.43-.72-.64-1.35-.64s-1.14,.12-1.53,.36-.71,.55-.96,.93c-.44,.69-.66,1.63-.66,2.8v3.86h-1.47v-9.24h1.47v1.59c.31-.52,.7-.94,1.18-1.26,.5-.34,1.08-.51,1.74-.51s1.19,.09,1.6,.28c.41,.19,.75,.45,1.03,.78,.56,.66,.84,1.52,.84,2.59v5.77h-1.47v-5.77Z"/><path d="M450.89,1010.78c0,.26-.09,.48-.27,.66-.18,.18-.4,.27-.66,.27s-.48-.09-.66-.27c-.18-.18-.27-.4-.27-.66s.09-.48,.27-.66,.4-.27,.66-.27,.48,.09,.66,.27,.27,.4,.27,.66Zm-1.66,11.77v-9.24h1.47v9.24h-1.47Z"/><path d="M452.78,1013.31h2.31v-3.59h1.47v3.59h2.29v1.37h-2.29v7.87h-1.47v-7.87h-2.31v-1.37Z"/><path d="M460.24,1027.79l3.11-6.76-3.86-7.73h1.68l2.96,6.19,2.65-6.19h1.64l-6.38,14.49h-1.78Z"/><path d="M474.08,1008.27h1.6l4.89,11.51,4.87-11.51h1.6l-6.47,15.14-6.49-15.14Z"/><path d="M496.6,1015.68c-.86,.81-1.93,1.21-3.2,1.21h-3.11v5.65h-1.47v-14.28h4.58c1.26,0,2.33,.4,3.2,1.2,.89,.81,1.33,1.85,1.33,3.11s-.44,2.29-1.33,3.12Zm-2.99-.22c.82,0,1.5-.28,2.04-.83,.55-.56,.82-1.26,.82-2.11s-.26-1.53-.78-2.06c-.52-.53-1.21-.8-2.08-.8h-3.32v5.79h3.32Z"/><path d="M499.15,1018.47v-1.2h7.03v1.2h-7.03Z"/><path d="M509.03,1020.25c-.68-1.32-1.02-2.94-1.02-4.86s.34-3.54,1.02-4.86c.85-1.66,2.12-2.49,3.81-2.49s2.96,.83,3.81,2.49c.68,1.32,1.02,2.94,1.02,4.86s-.34,3.54-1.02,4.86c-.85,1.66-2.12,2.49-3.81,2.49s-2.96-.83-3.81-2.49Zm3.74-10.63c-.47,0-.87,.1-1.22,.3-.34,.2-.64,.47-.88,.81-.24,.34-.44,.71-.6,1.13s-.27,.84-.36,1.27c-.15,.78-.23,1.44-.23,1.97s.02,1,.05,1.4c.04,.41,.09,.83,.18,1.26s.21,.86,.37,1.27c.16,.41,.36,.78,.61,1.11,.55,.74,1.26,1.1,2.13,1.1,.78,0,1.44-.37,1.98-1.11,.64-.88,1.04-2.09,1.21-3.64,.04-.4,.06-.75,.06-1.04,0-1.26-.2-2.45-.61-3.58-.32-.89-.81-1.53-1.48-1.94-.34-.21-.75-.31-1.22-.31Z"/><path d="M524.46,1022.76c-.58,0-1.11-.08-1.59-.23-.48-.15-.91-.37-1.31-.64-.85-.58-1.44-1.34-1.77-2.28l1.43-.48c.24,.66,.64,1.18,1.22,1.56s1.15,.58,1.72,.58,1.06-.09,1.47-.26,.76-.41,1.06-.7c.66-.65,1-1.42,1-2.31s-.33-1.69-.98-2.34-1.44-.98-2.36-.98-1.72,.34-2.39,1.01l-1.11-.9,4.33-5.04h-4.7v-1.47h7.68l-4.47,5.29,.63-.38c1.38,.09,2.51,.57,3.41,1.44,.96,.93,1.44,2.06,1.44,3.39s-.47,2.46-1.42,3.37c-.44,.43-.95,.76-1.53,1.01-.58,.25-1.16,.37-1.74,.37Z"/></g><g><path d="M109.69,157.55l-1.53-3.88h-6.27l-1.54,3.88h-1.6l6.28-15.26,6.26,15.26h-1.6Zm-2.07-5.25l-2.59-6.57-2.6,6.57h5.19Z"/><path d="M113.08,157.55v-15.75h1.47v15.75h-1.47Z"/><path d="M116.54,148.31h2.31v-3.59h1.47v3.59h2.29v1.37h-2.29v7.87h-1.47v-7.87h-2.31v-1.37Z"/><path d="M126.37,145.78c0,.26-.09,.48-.27,.66-.18,.18-.4,.27-.66,.27s-.48-.09-.66-.27c-.18-.18-.27-.4-.27-.66s.09-.48,.27-.66,.4-.27,.66-.27,.48,.09,.66,.27,.27,.4,.27,.66Zm-1.66,11.77v-9.24h1.47v9.24h-1.47Z"/><path d="M128.26,148.31h2.31v-3.59h1.47v3.59h2.29v1.37h-2.29v7.87h-1.47v-7.87h-2.31v-1.37Z"/><path d="M139.62,157.74c-1.04,0-1.84-.34-2.43-1.02-.58-.68-.87-1.56-.87-2.63v-5.77h1.47v5.77c0,.6,.14,1.12,.41,1.54,.27,.43,.72,.64,1.35,.64,1.15,0,1.96-.36,2.43-1.08,.48-.72,.72-1.73,.72-3.01v-3.86h1.47v9.24h-1.47v-1.58c-.69,1.18-1.72,1.77-3.09,1.77Z"/><path d="M154.36,157.55v-1.58c-.08,.11-.17,.21-.26,.32-.87,.98-1.95,1.47-3.22,1.47s-2.35-.49-3.22-1.47c-.85-.95-1.27-2.07-1.27-3.36s.42-2.41,1.27-3.36c.87-.98,1.95-1.47,3.22-1.47s2.35,.49,3.22,1.47c.09,.1,.18,.21,.26,.32v-8.09h1.47v15.75h-1.47Zm-.93-6.97c-.63-.67-1.4-1.01-2.32-1.01s-1.69,.34-2.32,1.01c-.62,.67-.93,1.45-.93,2.35s.31,1.68,.93,2.35c.63,.67,1.4,1.01,2.32,1.01s1.69-.34,2.32-1.01c.62-.67,.93-1.45,.93-2.35s-.31-1.68-.93-2.35Z"/><path d="M165.13,162.02v-20.22h3.8v1.03h-2.41v18.14h2.41v1.05h-3.8Z"/><path d="M172.04,157.55v-15.75h1.47v10.65l3.38-4.16h1.95l-3.8,4.49,4.05,4.77h-1.95l-3.63-4.43v4.43h-1.47Z"/><path d="M192.6,151.73c0-.96-.3-1.62-.9-2-.21-.13-.53-.2-.97-.2s-.84,.13-1.22,.38-.68,.57-.9,.97c-.09,.16-.17,.33-.24,.51,0,.12,.01,.23,.01,.35v5.77h-1.47v-5.77c0-.96-.3-1.62-.9-2-.21-.13-.53-.2-.97-.2s-.84,.13-1.22,.38-.68,.57-.9,.97c-.3,.52-.49,1.16-.57,1.91v4.73h-1.47v-9.24h1.47v1.47c.28-.47,.62-.86,1.04-1.16,.48-.35,1.05-.53,1.69-.53s1.16,.1,1.55,.3,.72,.47,.98,.81c.15,.2,.28,.41,.39,.64,.28-.5,.64-.91,1.08-1.23,.48-.35,1.05-.53,1.69-.53s1.16,.1,1.55,.3,.72,.47,.98,.81c.51,.66,.77,1.52,.77,2.56v5.77h-1.47v-5.77Z"/><path d="M196.86,162.02v-1.05h2.41v-18.14h-2.41v-1.03h3.8v20.22h-3.8Z"/></g><g><path d="M687.75,1008.27h1.6l4.89,11.51,4.87-11.51h1.6l-6.47,15.14-6.49-15.14Z"/><path d="M702.1,1012.06c0-1.34,.47-2.34,1.41-3.01s2.04-1,3.31-1c2.78,0,4.42,1.04,4.95,3.11h-1.59c-.28-1.23-1.4-1.85-3.36-1.85-1.38,0-2.34,.41-2.89,1.23-.21,.3-.31,.69-.31,1.15,0,.87,.47,1.55,1.43,2.03,.45,.24,1.4,.55,2.86,.92s2.51,.8,3.16,1.26c.91,.64,1.37,1.55,1.37,2.72,0,1.43-.57,2.52-1.7,3.26-.95,.62-2.13,.93-3.53,.93-3.16,0-5-1.2-5.5-3.61h1.74c.27,1.51,1.52,2.27,3.76,2.27,1.6,0,2.71-.44,3.35-1.33,.25-.34,.37-.81,.37-1.41s-.23-1.08-.69-1.45c-.66-.54-1.92-1.03-3.76-1.47-2.91-.67-4.37-1.92-4.37-3.75Z"/><path d="M714.15,1012.06c0-1.34,.47-2.34,1.41-3.01s2.04-1,3.31-1c2.78,0,4.42,1.04,4.95,3.11h-1.59c-.28-1.23-1.4-1.85-3.36-1.85-1.38,0-2.34,.41-2.89,1.23-.21,.3-.31,.69-.31,1.15,0,.87,.47,1.55,1.43,2.03,.45,.24,1.4,.55,2.86,.92s2.51,.8,3.16,1.26c.91,.64,1.37,1.55,1.37,2.72,0,1.43-.57,2.52-1.7,3.26-.95,.62-2.13,.93-3.53,.93-3.16,0-5-1.2-5.5-3.61h1.74c.27,1.51,1.52,2.27,3.76,2.27,1.6,0,2.71-.44,3.35-1.33,.25-.34,.37-.81,.37-1.41s-.23-1.08-.69-1.45c-.66-.54-1.92-1.03-3.76-1.47-2.91-.67-4.37-1.92-4.37-3.75Z"/><path d="M741.09,1021.48c-.95,.84-2.22,1.26-3.8,1.26s-2.87-.42-3.82-1.26c-1.01-.89-1.51-2.11-1.51-3.65v-9.55h1.47v9.76c0,1.07,.39,1.9,1.17,2.48,.68,.5,1.58,.76,2.7,.76,1.74,0,2.92-.59,3.53-1.76,.21-.41,.31-.9,.31-1.47v-9.76h1.47v9.55c0,1.55-.5,2.76-1.51,3.65Z"/><path d="M751.82,1016.77c0-.6-.14-1.12-.41-1.54-.27-.43-.72-.64-1.35-.64s-1.14,.12-1.53,.36-.71,.55-.96,.93c-.44,.69-.66,1.63-.66,2.8v3.86h-1.47v-9.24h1.47v1.59c.31-.52,.7-.94,1.18-1.26,.5-.34,1.08-.51,1.74-.51s1.19,.09,1.6,.28c.41,.19,.75,.45,1.03,.78,.56,.66,.84,1.52,.84,2.59v5.77h-1.47v-5.77Z"/><path d="M757.89,1010.78c0,.26-.09,.48-.27,.66-.18,.18-.4,.27-.66,.27s-.48-.09-.66-.27c-.18-.18-.27-.4-.27-.66s.09-.48,.27-.66,.4-.27,.66-.27,.48,.09,.66,.27,.27,.4,.27,.66Zm-1.66,11.77v-9.24h1.47v9.24h-1.47Z"/><path d="M759.78,1013.31h2.31v-3.59h1.47v3.59h2.29v1.37h-2.29v7.87h-1.47v-7.87h-2.31v-1.37Z"/><path d="M767.24,1027.79l3.11-6.76-3.86-7.73h1.68l2.96,6.19,2.65-6.19h1.64l-6.38,14.49h-1.78Z"/><path d="M781.08,1008.27h1.6l4.89,11.51,4.87-11.51h1.6l-6.47,15.14-6.49-15.14Z"/><path d="M797.29,1009.63v5.08h6.8v1.39h-6.8v6.45h-1.47v-14.28h8.48v1.37h-7.01Z"/><path d="M805.52,1018.47v-1.2h7.03v1.2h-7.03Z"/><path d="M815.4,1020.25c-.68-1.32-1.02-2.94-1.02-4.86s.34-3.54,1.02-4.86c.85-1.66,2.12-2.49,3.81-2.49s2.96,.83,3.81,2.49c.68,1.32,1.02,2.94,1.02,4.86s-.34,3.54-1.02,4.86c-.85,1.66-2.12,2.49-3.81,2.49s-2.96-.83-3.81-2.49Zm3.74-10.63c-.47,0-.87,.1-1.22,.3-.34,.2-.64,.47-.88,.81-.24,.34-.44,.71-.6,1.13s-.27,.84-.36,1.27c-.15,.78-.23,1.44-.23,1.97s.02,1,.05,1.4c.04,.41,.09,.83,.18,1.26s.21,.86,.37,1.27c.16,.41,.36,.78,.61,1.11,.55,.74,1.26,1.1,2.13,1.1,.78,0,1.44-.37,1.98-1.11,.64-.88,1.04-2.09,1.21-3.64,.04-.4,.06-.75,.06-1.04,0-1.26-.2-2.45-.61-3.58-.32-.89-.81-1.53-1.48-1.94-.34-.21-.75-.31-1.22-.31Z"/><path d="M828.2,1009.76h-2.06v-1.28l3.53-.38v14.45h-1.47v-12.79Z"/></g><g><path d="M992.75,1008.27h1.6l4.89,11.51,4.87-11.51h1.6l-6.47,15.14-6.49-15.14Z"/><path d="M1007.1,1012.06c0-1.34,.47-2.34,1.41-3.01,.94-.67,2.04-1,3.31-1,2.78,0,4.42,1.04,4.95,3.11h-1.59c-.28-1.23-1.4-1.85-3.36-1.85-1.38,0-2.34,.41-2.89,1.23-.21,.3-.31,.69-.31,1.15,0,.87,.47,1.55,1.43,2.03,.45,.24,1.4,.55,2.86,.92,1.45,.38,2.51,.8,3.16,1.26,.91,.64,1.37,1.55,1.37,2.72,0,1.43-.57,2.52-1.7,3.26-.95,.62-2.13,.93-3.53,.93-3.16,0-5-1.2-5.5-3.61h1.74c.27,1.51,1.52,2.27,3.76,2.27,1.6,0,2.71-.44,3.35-1.33,.25-.34,.37-.81,.37-1.41s-.23-1.08-.69-1.45c-.66-.54-1.92-1.03-3.76-1.47-2.91-.67-4.37-1.92-4.37-3.75Z"/><path d="M1019.15,1012.06c0-1.34,.47-2.34,1.41-3.01,.94-.67,2.04-1,3.31-1,2.78,0,4.43,1.04,4.95,3.11h-1.59c-.29-1.23-1.4-1.85-3.36-1.85-1.38,0-2.34,.41-2.89,1.23-.21,.3-.31,.69-.31,1.15,0,.87,.47,1.55,1.43,2.03,.45,.24,1.4,.55,2.86,.92,1.46,.38,2.51,.8,3.17,1.26,.91,.64,1.37,1.55,1.37,2.72,0,1.43-.57,2.52-1.7,3.26-.95,.62-2.13,.93-3.53,.93-3.16,0-4.99-1.2-5.5-3.61h1.74c.27,1.51,1.52,2.27,3.76,2.27,1.6,0,2.71-.44,3.35-1.33,.25-.34,.37-.81,.37-1.41s-.23-1.08-.69-1.45c-.66-.54-1.92-1.03-3.76-1.47-2.91-.67-4.37-1.92-4.37-3.75Z"/><path d="M1046.09,1021.48c-.95,.84-2.22,1.26-3.8,1.26s-2.87-.42-3.82-1.26c-1.01-.89-1.51-2.11-1.51-3.65v-9.55h1.47v9.76c0,1.07,.39,1.9,1.17,2.48,.68,.5,1.58,.76,2.7,.76,1.74,0,2.92-.59,3.53-1.76,.21-.41,.31-.9,.31-1.47v-9.76h1.47v9.55c0,1.55-.5,2.76-1.51,3.65Z"/><path d="M1056.82,1016.77c0-.6-.14-1.12-.41-1.54-.27-.43-.72-.64-1.35-.64s-1.14,.12-1.53,.36-.71,.55-.96,.93c-.44,.69-.66,1.63-.66,2.8v3.86h-1.47v-9.24h1.47v1.59c.31-.52,.7-.94,1.18-1.26,.5-.34,1.08-.51,1.74-.51s1.19,.09,1.6,.28c.41,.19,.75,.45,1.03,.78,.56,.66,.84,1.52,.84,2.59v5.77h-1.47v-5.77Z"/><path d="M1062.89,1010.78c0,.26-.09,.48-.27,.66-.18,.18-.4,.27-.66,.27s-.48-.09-.66-.27c-.18-.18-.27-.4-.27-.66s.09-.48,.27-.66c.18-.18,.4-.27,.66-.27s.48,.09,.66,.27,.27,.4,.27,.66Zm-1.66,11.77v-9.24h1.47v9.24h-1.47Z"/><path d="M1064.78,1013.31h2.31v-3.59h1.47v3.59h2.29v1.37h-2.29v7.87h-1.47v-7.87h-2.31v-1.37Z"/><path d="M1072.24,1027.79l3.11-6.76-3.86-7.73h1.68l2.96,6.19,2.65-6.19h1.64l-6.38,14.49h-1.78Z"/><path d="M1086.08,1008.27h1.6l4.89,11.51,4.87-11.51h1.6l-6.47,15.14-6.49-15.14Z"/><path d="M1102.29,1009.63v5.08h6.8v1.39h-6.8v6.45h-1.47v-14.28h8.48v1.37h-7.01Z"/><path d="M1110.52,1018.47v-1.2h7.03v1.2h-7.03Z"/><path d="M1120.4,1020.25c-.68-1.32-1.02-2.94-1.02-4.86s.34-3.54,1.02-4.86c.85-1.66,2.12-2.49,3.81-2.49s2.96,.83,3.81,2.49c.68,1.32,1.02,2.94,1.02,4.86s-.34,3.54-1.02,4.86c-.85,1.66-2.12,2.49-3.81,2.49s-2.96-.83-3.81-2.49Zm3.74-10.63c-.47,0-.88,.1-1.22,.3s-.64,.47-.88,.81c-.24,.34-.44,.71-.6,1.13-.15,.42-.27,.84-.36,1.27-.15,.78-.23,1.44-.23,1.97s.02,1,.05,1.4c.04,.41,.09,.83,.18,1.26s.21,.86,.37,1.27c.16,.41,.36,.78,.61,1.11,.55,.74,1.26,1.1,2.13,1.1,.78,0,1.44-.37,1.98-1.11,.64-.88,1.04-2.09,1.21-3.64,.04-.4,.06-.75,.06-1.04,0-1.26-.2-2.45-.61-3.58-.32-.89-.81-1.53-1.48-1.94-.34-.21-.75-.31-1.22-.31Z"/><path d="M1138.8,1015.09c.63-.63,.95-1.4,.95-2.31s-.33-1.65-.98-2.29c-.64-.63-1.43-.94-2.34-.94s-1.73,.35-2.38,1.05c-.68,.72-.97,1.53-.89,2.42h-1.49c-.06-1.38,.39-2.54,1.33-3.51,.96-.98,2.13-1.47,3.5-1.47s2.45,.46,3.41,1.4c.94,.92,1.42,2.04,1.42,3.37s-.46,2.41-1.39,3.34l-4.98,4.93h6.51v1.47h-10.06l7.39-7.45Z"/></g><g><path d="M1294.75,1008.27h1.6l4.89,11.51,4.87-11.51h1.6l-6.47,15.14-6.49-15.14Z"/><path d="M1309.1,1012.06c0-1.34,.47-2.34,1.41-3.01,.94-.67,2.04-1,3.31-1,2.78,0,4.42,1.04,4.95,3.11h-1.59c-.28-1.23-1.4-1.85-3.36-1.85-1.38,0-2.34,.41-2.89,1.23-.21,.3-.31,.69-.31,1.15,0,.87,.47,1.55,1.43,2.03,.45,.24,1.4,.55,2.86,.92,1.45,.38,2.51,.8,3.16,1.26,.91,.64,1.37,1.55,1.37,2.72,0,1.43-.57,2.52-1.7,3.26-.95,.62-2.13,.93-3.53,.93-3.16,0-5-1.2-5.5-3.61h1.74c.27,1.51,1.52,2.27,3.76,2.27,1.6,0,2.71-.44,3.35-1.33,.25-.34,.37-.81,.37-1.41s-.23-1.08-.69-1.45c-.66-.54-1.92-1.03-3.76-1.47-2.91-.67-4.37-1.92-4.37-3.75Z"/><path d="M1321.15,1012.06c0-1.34,.47-2.34,1.41-3.01,.94-.67,2.04-1,3.31-1,2.78,0,4.43,1.04,4.95,3.11h-1.59c-.29-1.23-1.4-1.85-3.36-1.85-1.38,0-2.34,.41-2.89,1.23-.21,.3-.31,.69-.31,1.15,0,.87,.47,1.55,1.43,2.03,.45,.24,1.4,.55,2.86,.92,1.46,.38,2.51,.8,3.17,1.26,.91,.64,1.37,1.55,1.37,2.72,0,1.43-.57,2.52-1.7,3.26-.95,.62-2.13,.93-3.53,.93-3.16,0-4.99-1.2-5.5-3.61h1.74c.27,1.51,1.52,2.27,3.76,2.27,1.6,0,2.71-.44,3.35-1.33,.25-.34,.37-.81,.37-1.41s-.23-1.08-.69-1.45c-.66-.54-1.92-1.03-3.76-1.47-2.91-.67-4.37-1.92-4.37-3.75Z"/><path d="M1348.09,1021.48c-.95,.84-2.22,1.26-3.8,1.26s-2.87-.42-3.82-1.26c-1.01-.89-1.51-2.11-1.51-3.65v-9.55h1.47v9.76c0,1.07,.39,1.9,1.17,2.48,.68,.5,1.58,.76,2.7,.76,1.74,0,2.92-.59,3.53-1.76,.21-.41,.31-.9,.31-1.47v-9.76h1.47v9.55c0,1.55-.5,2.76-1.51,3.65Z"/><path d="M1358.82,1016.77c0-.6-.14-1.12-.41-1.54-.27-.43-.72-.64-1.35-.64s-1.14,.12-1.53,.36-.71,.55-.96,.93c-.44,.69-.66,1.63-.66,2.8v3.86h-1.47v-9.24h1.47v1.59c.31-.52,.7-.94,1.18-1.26,.5-.34,1.08-.51,1.74-.51s1.19,.09,1.6,.28c.41,.19,.75,.45,1.03,.78,.56,.66,.84,1.52,.84,2.59v5.77h-1.47v-5.77Z"/><path d="M1364.89,1010.78c0,.26-.09,.48-.27,.66-.18,.18-.4,.27-.66,.27s-.48-.09-.66-.27c-.18-.18-.27-.4-.27-.66s.09-.48,.27-.66c.18-.18,.4-.27,.66-.27s.48,.09,.66,.27,.27,.4,.27,.66Zm-1.66,11.77v-9.24h1.47v9.24h-1.47Z"/><path d="M1366.78,1013.31h2.31v-3.59h1.47v3.59h2.29v1.37h-2.29v7.87h-1.47v-7.87h-2.31v-1.37Z"/><path d="M1374.24,1027.79l3.11-6.76-3.86-7.73h1.68l2.96,6.19,2.65-6.19h1.64l-6.38,14.49h-1.78Z"/><path d="M1398.26,1021.48c-.95,.84-2.22,1.26-3.8,1.26s-2.87-.42-3.82-1.26c-1.01-.89-1.51-2.11-1.51-3.65v-9.55h1.47v9.76c0,1.07,.39,1.9,1.17,2.48,.68,.5,1.58,.76,2.7,.76,1.74,0,2.92-.59,3.53-1.76,.21-.41,.31-.9,.31-1.47v-9.76h1.47v9.55c0,1.55-.5,2.76-1.51,3.65Z"/><path d="M1408.99,1016.77c0-.6-.14-1.12-.41-1.54-.27-.43-.72-.64-1.35-.64s-1.14,.12-1.53,.36-.71,.55-.96,.93c-.44,.69-.66,1.63-.66,2.8v3.86h-1.47v-9.24h1.47v1.59c.31-.52,.7-.94,1.18-1.26,.5-.34,1.08-.51,1.74-.51s1.19,.09,1.6,.28c.41,.19,.75,.45,1.03,.78,.56,.66,.84,1.52,.84,2.59v5.77h-1.47v-5.77Z"/><path d="M1415.06,1010.78c0,.26-.09,.48-.27,.66-.18,.18-.4,.27-.66,.27s-.48-.09-.66-.27c-.18-.18-.27-.4-.27-.66s.09-.48,.27-.66c.18-.18,.4-.27,.66-.27s.48,.09,.66,.27,.27,.4,.27,.66Zm-1.66,11.77v-9.24h1.47v9.24h-1.47Z"/><path d="M1416.95,1013.31h2.31v-3.59h1.47v3.59h2.29v1.37h-2.29v7.87h-1.47v-7.87h-2.31v-1.37Z"/><path d="M1424.41,1027.79l3.11-6.76-3.86-7.73h1.68l2.96,6.19,2.65-6.19h1.64l-6.38,14.49h-1.78Z"/><path d="M1446.75,1015.09c.63-.63,.94-1.4,.94-2.31s-.33-1.65-.98-2.29c-.65-.63-1.42-.94-2.34-.94s-1.73,.35-2.38,1.05c-.67,.72-.97,1.53-.89,2.42h-1.49c-.06-1.38,.39-2.54,1.33-3.51,.96-.98,2.13-1.47,3.5-1.47s2.45,.46,3.41,1.4c.94,.92,1.42,2.04,1.42,3.37s-.46,2.41-1.39,3.34l-4.98,4.93h6.51v1.47h-10.06l7.39-7.45Z"/><path d="M1454.06,1009.76h-2.06v-1.28l3.53-.38v14.45h-1.47v-12.79Z"/></g><g><path d="M1813.96,957.23h8.4v1.36h-3.46v12.91h-1.47v-12.91h-3.46v-1.36Z"/><path d="M1825.33,963.76c-.38,0-.71,.11-.98,.33-.27,.22-.5,.48-.68,.8-.35,.61-.52,1.29-.52,2.05v4.62h-1.47v-9.24h1.47v1.91l.06-.38c.49-1.15,1.25-1.72,2.29-1.72,.32,0,.63,.06,.92,.19v1.91c-.34-.31-.7-.46-1.08-.46Z"/><path d="M1835.81,970.29c-.95,.94-2.09,1.41-3.41,1.41s-2.46-.47-3.41-1.41c-.94-.93-1.42-2.06-1.42-3.4s.47-2.47,1.42-3.41c.95-.94,2.08-1.42,3.41-1.42s2.47,.47,3.41,1.42c.94,.95,1.42,2.08,1.42,3.41s-.47,2.47-1.42,3.4Zm-1.04-5.77c-.66-.66-1.45-.99-2.37-.99s-1.71,.33-2.37,.99-.99,1.45-.99,2.37,.33,1.69,.99,2.35c.66,.66,1.45,.99,2.37,.99s1.71-.33,2.37-.99c.66-.66,.99-1.44,.99-2.35s-.33-1.71-.99-2.37Z"/><path d="M1839.75,976.79v-14.49h1.47v1.58c.08-.11,.17-.21,.26-.32,.87-.98,1.95-1.47,3.22-1.47s2.35,.49,3.22,1.47c.85,.95,1.27,2.07,1.27,3.36s-.42,2.41-1.27,3.36c-.87,.98-1.95,1.47-3.22,1.47s-2.35-.49-3.22-1.47c-.09-.1-.18-.21-.26-.32v6.83h-1.47Zm7.04-12.22c-.63-.67-1.4-1.01-2.32-1.01s-1.69,.34-2.32,1.01c-.62,.67-.93,1.45-.93,2.35s.31,1.68,.93,2.35c.63,.67,1.4,1.01,2.32,1.01s1.69-.34,2.32-1.01c.62-.67,.93-1.45,.93-2.35s-.31-1.68-.93-2.35Z"/><path d="M1859.33,970.29c-.95,.94-2.09,1.41-3.41,1.41s-2.46-.47-3.41-1.41c-.94-.93-1.42-2.06-1.42-3.4s.47-2.47,1.42-3.41c.95-.94,2.08-1.42,3.41-1.42s2.47,.47,3.41,1.42c.94,.95,1.42,2.08,1.42,3.41s-.47,2.47-1.42,3.4Zm-1.04-5.77c-.66-.66-1.45-.99-2.37-.99s-1.71,.33-2.37,.99-.99,1.45-.99,2.37,.33,1.69,.99,2.35c.66,.66,1.45,.99,2.37,.99s1.71-.33,2.37-.99c.66-.66,.99-1.44,.99-2.35s-.33-1.71-.99-2.37Z"/><path d="M1866.04,970.6c1.34,0,2.02-.5,2.02-1.51,0-.59-.48-1.04-1.44-1.35-.41-.13-.84-.26-1.31-.37-.47-.11-.91-.26-1.32-.45-.48-.22-.83-.5-1.07-.83-.24-.34-.36-.74-.36-1.19,0-.92,.32-1.61,.97-2.08,.65-.47,1.42-.71,2.31-.71s1.63,.18,2.23,.55c.59,.36,.98,1.01,1.18,1.95h-1.58c-.16-.52-.39-.86-.72-1.03-.32-.17-.71-.25-1.16-.25s-.85,.1-1.18,.3c-.34,.2-.5,.51-.5,.92s.14,.72,.42,.91c.27,.19,.61,.35,1.02,.48,.41,.13,.84,.24,1.31,.35,.47,.1,.91,.26,1.32,.45,.95,.45,1.43,1.18,1.43,2.17s-.36,1.73-1.07,2.2c-.36,.24-.75,.42-1.19,.53-.43,.12-.9,.18-1.4,.18-2.14,0-3.37-.95-3.69-2.86h1.55c.16,.6,.42,1.02,.79,1.27,.37,.25,.85,.37,1.43,.37Z"/><path d="M1875.41,957.16c-.49,0-.81,.11-.97,.34-.15,.22-.23,.5-.23,.82v3.99h2.46v1.37h-2.46v7.87h-1.47v-7.87h-1.87v-1.37h1.87v-3.57c0-.94,.22-1.66,.66-2.17,.44-.51,1.18-.77,2.21-.77h1.05v1.36h-1.26Z"/><path d="M1887.9,967.49h-8.13c.14,.79,.53,1.44,1.16,1.95,.64,.52,1.35,.78,2.14,.78,.53,0,1.04-.12,1.52-.37,.48-.25,.89-.58,1.21-1.02h1.68c-.39,.88-.98,1.58-1.77,2.09s-1.6,.77-2.41,.77-1.52-.12-2.1-.38c-.58-.25-1.09-.6-1.53-1.03-.94-.93-1.42-2.06-1.42-3.4s.47-2.47,1.42-3.41c.95-.94,2.08-1.42,3.41-1.42s2.41,.46,3.37,1.37c.97,.93,1.46,2.02,1.46,3.3v.78Zm-2.74-3.21c-.61-.5-1.3-.76-2.09-.76-1.2,0-2.14,.54-2.83,1.63-.21,.33-.36,.69-.44,1.08h6.55c-.17-.79-.56-1.44-1.19-1.95Z"/><path d="M1893.98,963.76c-.38,0-.71,.11-.99,.33-.27,.22-.5,.48-.68,.8-.35,.61-.52,1.29-.52,2.05v4.62h-1.47v-9.24h1.47v1.91l.06-.38c.49-1.15,1.25-1.72,2.29-1.72,.32,0,.63,.06,.92,.19v1.91c-.34-.31-.7-.46-1.08-.46Z"/><path d="M1904.2,971.55v-1.58c-.08,.11-.17,.21-.26,.32-.87,.98-1.95,1.47-3.22,1.47s-2.35-.49-3.22-1.47c-.85-.95-1.27-2.07-1.27-3.36s.42-2.41,1.27-3.36c.87-.98,1.95-1.47,3.22-1.47s2.35,.49,3.22,1.47c.09,.1,.18,.21,.26,.32v-1.58h1.47v9.24h-1.47Zm-.93-6.97c-.63-.67-1.4-1.01-2.32-1.01s-1.69,.34-2.32,1.01c-.62,.67-.93,1.45-.93,2.35s.31,1.68,.93,2.35c.63,.67,1.4,1.01,2.32,1.01s1.69-.34,2.32-1.01c.62-.67,.93-1.45,.93-2.35s-.31-1.68-.93-2.35Z"/></g><g><path d="M1802.12,890.55v-14.28h8.48v1.37h-7.01v5.08h6.8v1.39h-6.8v5.08h7.01v1.37h-8.48Z"/><path d="M1816.52,889.6c1.34,0,2.02-.5,2.02-1.51,0-.59-.48-1.04-1.44-1.35-.41-.13-.84-.26-1.31-.37-.47-.11-.91-.26-1.32-.45-.48-.22-.83-.5-1.07-.83s-.36-.74-.36-1.19c0-.92,.32-1.61,.97-2.08,.65-.47,1.42-.71,2.31-.71s1.63,.18,2.23,.55c.59,.36,.98,1.01,1.18,1.95h-1.58c-.16-.52-.39-.86-.72-1.03-.32-.17-.71-.25-1.16-.25s-.85,.1-1.18,.3c-.34,.2-.5,.51-.5,.92s.14,.72,.42,.91c.27,.19,.61,.35,1.02,.48,.41,.13,.84,.24,1.31,.35,.47,.1,.91,.26,1.32,.45,.95,.45,1.43,1.18,1.43,2.17s-.36,1.73-1.07,2.2c-.36,.24-.75,.42-1.19,.53-.43,.12-.9,.18-1.4,.18-2.14,0-3.37-.95-3.69-2.86h1.55c.16,.6,.42,1.02,.79,1.27,.37,.25,.85,.37,1.43,.37Z"/><path d="M1821.04,881.31h2.31v-3.59h1.47v3.59h2.29v1.37h-2.29v7.87h-1.47v-7.87h-2.31v-1.37Z"/><path d="M1832.76,882.76c-.38,0-.71,.11-.98,.33-.27,.22-.5,.48-.68,.8-.35,.61-.53,1.29-.53,2.05v4.62h-1.47v-9.24h1.47v1.91l.06-.38c.49-1.15,1.25-1.72,2.29-1.72,.32,0,.63,.06,.92,.19v1.91c-.34-.31-.7-.46-1.08-.46Z"/><path d="M1842.98,890.55v-1.58c-.08,.11-.17,.21-.26,.32-.87,.98-1.95,1.47-3.22,1.47s-2.35-.49-3.22-1.47c-.85-.95-1.27-2.07-1.27-3.36s.42-2.41,1.27-3.36c.87-.98,1.95-1.47,3.22-1.47s2.35,.49,3.22,1.47c.09,.1,.18,.21,.26,.32v-1.58h1.47v9.24h-1.47Zm-.93-6.97c-.63-.67-1.4-1.01-2.32-1.01s-1.69,.34-2.32,1.01c-.62,.67-.93,1.45-.93,2.35s.31,1.68,.93,2.35c.63,.67,1.4,1.01,2.32,1.01s1.69-.34,2.32-1.01c.62-.67,.93-1.45,.93-2.35s-.31-1.68-.93-2.35Z"/><path d="M1846.45,881.31h2.31v-3.59h1.47v3.59h2.29v1.37h-2.29v7.87h-1.47v-7.87h-2.31v-1.37Z"/><path d="M1862.12,889.29c-.95,.94-2.09,1.41-3.41,1.41s-2.46-.47-3.41-1.41c-.94-.93-1.42-2.06-1.42-3.4s.47-2.47,1.42-3.41c.95-.94,2.08-1.42,3.41-1.42s2.47,.47,3.41,1.42c.94,.95,1.42,2.08,1.42,3.41s-.47,2.47-1.42,3.4Zm-1.04-5.77c-.66-.66-1.45-.99-2.37-.99s-1.71,.33-2.37,.99c-.66,.66-.99,1.45-.99,2.37s.33,1.69,.99,2.35c.66,.66,1.45,.99,2.37,.99s1.71-.33,2.37-.99c.66-.66,.99-1.44,.99-2.35s-.33-1.71-.99-2.37Z"/><path d="M1868.83,889.6c1.35,0,2.02-.5,2.02-1.51,0-.59-.48-1.04-1.44-1.35-.41-.13-.84-.26-1.31-.37-.47-.11-.91-.26-1.32-.45-.48-.22-.83-.5-1.07-.83-.24-.34-.36-.74-.36-1.19,0-.92,.32-1.61,.97-2.08,.65-.47,1.42-.71,2.31-.71s1.64,.18,2.23,.55c.59,.36,.98,1.01,1.18,1.95h-1.58c-.16-.52-.4-.86-.72-1.03-.32-.17-.71-.25-1.16-.25s-.85,.1-1.18,.3c-.34,.2-.5,.51-.5,.92s.14,.72,.42,.91c.27,.19,.61,.35,1.02,.48,.41,.13,.84,.24,1.31,.35,.47,.1,.91,.26,1.32,.45,.95,.45,1.43,1.18,1.43,2.17s-.36,1.73-1.07,2.2c-.36,.24-.75,.42-1.19,.53-.43,.12-.89,.18-1.4,.18-2.14,0-3.37-.95-3.69-2.86h1.55c.16,.6,.42,1.02,.79,1.27,.37,.25,.85,.37,1.43,.37Z"/><path d="M1878.2,876.16c-.49,0-.81,.11-.96,.34-.15,.22-.23,.5-.23,.82v3.99h2.46v1.37h-2.46v7.87h-1.47v-7.87h-1.87v-1.37h1.87v-3.57c0-.94,.22-1.66,.66-2.17,.44-.51,1.18-.77,2.22-.77h1.05v1.36h-1.26Z"/><path d="M1890.69,886.49h-8.12c.14,.79,.53,1.44,1.15,1.95,.64,.52,1.35,.78,2.14,.78,.53,0,1.04-.12,1.52-.37,.48-.25,.88-.58,1.21-1.02h1.68c-.39,.88-.98,1.58-1.77,2.09-.79,.51-1.6,.77-2.41,.77s-1.52-.12-2.1-.38-1.09-.6-1.53-1.03c-.94-.93-1.42-2.06-1.42-3.4s.47-2.47,1.42-3.41c.95-.94,2.08-1.42,3.41-1.42s2.42,.46,3.37,1.37c.97,.93,1.46,2.02,1.46,3.3v.78Zm-2.74-3.21c-.61-.5-1.3-.76-2.09-.76-1.2,0-2.14,.54-2.83,1.63-.21,.33-.36,.69-.44,1.08h6.55c-.17-.79-.56-1.44-1.19-1.95Z"/><path d="M1896.77,882.76c-.38,0-.71,.11-.98,.33-.27,.22-.5,.48-.68,.8-.35,.61-.52,1.29-.52,2.05v4.62h-1.47v-9.24h1.47v1.91l.06-.38c.49-1.15,1.25-1.72,2.29-1.72,.32,0,.63,.06,.92,.19v1.91c-.34-.31-.7-.46-1.08-.46Z"/><path d="M1906.99,890.55v-1.58c-.08,.11-.17,.21-.26,.32-.87,.98-1.95,1.47-3.22,1.47s-2.35-.49-3.22-1.47c-.85-.95-1.27-2.07-1.27-3.36s.42-2.41,1.27-3.36c.87-.98,1.95-1.47,3.22-1.47s2.35,.49,3.22,1.47c.09,.1,.18,.21,.26,.32v-1.58h1.47v9.24h-1.47Zm-.93-6.97c-.63-.67-1.4-1.01-2.32-1.01s-1.69,.34-2.32,1.01c-.62,.67-.93,1.45-.93,2.35s.31,1.68,.93,2.35c.63,.67,1.4,1.01,2.32,1.01s1.69-.34,2.32-1.01c.62-.67,.93-1.45,.93-2.35s-.31-1.68-.93-2.35Z"/></g><g><path d="M1826.06,641.38l-4.28,11-4.3-11-2.21,10.16h-1.51l3.34-15.22,4.68,12.22,4.68-12.22,3.32,15.22h-1.49l-2.23-10.16Z"/><path d="M1840.59,647.49h-8.12c.14,.79,.53,1.44,1.15,1.95,.64,.52,1.35,.78,2.14,.78,.53,0,1.04-.12,1.52-.37,.48-.25,.88-.58,1.21-1.02h1.68c-.39,.88-.98,1.58-1.77,2.09-.79,.51-1.6,.77-2.41,.77s-1.52-.12-2.1-.38-1.09-.6-1.53-1.03c-.94-.93-1.42-2.06-1.42-3.4s.47-2.47,1.42-3.41c.95-.94,2.08-1.42,3.41-1.42s2.42,.46,3.37,1.37c.97,.93,1.46,2.02,1.46,3.3v.78Zm-2.74-3.21c-.61-.5-1.3-.76-2.09-.76-1.2,0-2.14,.54-2.83,1.63-.21,.33-.36,.69-.44,1.08h6.55c-.17-.79-.56-1.44-1.19-1.95Z"/><path d="M1845.77,650.6c1.34,0,2.02-.5,2.02-1.51,0-.59-.48-1.04-1.44-1.35-.41-.13-.84-.26-1.31-.37-.47-.11-.91-.26-1.32-.45-.48-.22-.83-.5-1.07-.83s-.36-.74-.36-1.19c0-.92,.32-1.61,.97-2.08,.65-.47,1.42-.71,2.31-.71s1.63,.18,2.23,.55c.59,.36,.98,1.01,1.18,1.95h-1.58c-.16-.52-.39-.86-.72-1.03-.32-.17-.71-.25-1.16-.25s-.85,.1-1.18,.3c-.34,.2-.5,.51-.5,.92s.14,.72,.42,.91c.27,.19,.61,.35,1.02,.48,.41,.13,.84,.24,1.31,.35,.47,.1,.91,.26,1.32,.45,.95,.45,1.43,1.18,1.43,2.17s-.36,1.73-1.07,2.2c-.36,.24-.75,.42-1.19,.53-.43,.12-.9,.18-1.4,.18-2.14,0-3.37-.95-3.69-2.86h1.55c.16,.6,.42,1.02,.79,1.27,.37,.25,.85,.37,1.43,.37Z"/><path d="M1859.06,650.29c-.95,.94-2.09,1.41-3.41,1.41s-2.46-.47-3.41-1.41c-.94-.93-1.42-2.06-1.42-3.4s.47-2.47,1.42-3.41c.95-.94,2.08-1.42,3.41-1.42s2.47,.47,3.41,1.42c.94,.95,1.42,2.08,1.42,3.41s-.47,2.47-1.42,3.4Zm-1.04-5.77c-.66-.66-1.45-.99-2.37-.99s-1.71,.33-2.37,.99c-.66,.66-.99,1.45-.99,2.37s.33,1.69,.99,2.35c.66,.66,1.45,.99,2.37,.99s1.71-.33,2.37-.99c.66-.66,.99-1.44,.99-2.35s-.33-1.71-.99-2.37Z"/><path d="M1865.76,650.6c1.35,0,2.02-.5,2.02-1.51,0-.59-.48-1.04-1.44-1.35-.41-.13-.84-.26-1.31-.37-.47-.11-.91-.26-1.32-.45-.48-.22-.83-.5-1.07-.83-.24-.34-.36-.74-.36-1.19,0-.92,.32-1.61,.97-2.08,.65-.47,1.42-.71,2.31-.71s1.64,.18,2.23,.55c.59,.36,.98,1.01,1.18,1.95h-1.58c-.16-.52-.4-.86-.72-1.03-.32-.17-.71-.25-1.16-.25s-.85,.1-1.18,.3c-.34,.2-.5,.51-.5,.92s.14,.72,.42,.91c.27,.19,.61,.35,1.02,.48,.41,.13,.84,.24,1.31,.35,.47,.1,.91,.26,1.32,.45,.95,.45,1.43,1.18,1.43,2.17s-.36,1.73-1.07,2.2c-.36,.24-.75,.42-1.19,.53-.43,.12-.89,.18-1.4,.18-2.14,0-3.37-.95-3.69-2.86h1.55c.16,.6,.42,1.02,.79,1.27,.37,.25,.85,.37,1.43,.37Z"/><path d="M1875.13,637.16c-.49,0-.81,.11-.96,.34-.15,.22-.23,.5-.23,.82v3.99h2.46v1.37h-2.46v7.87h-1.47v-7.87h-1.87v-1.37h1.87v-3.57c0-.94,.22-1.66,.66-2.17,.44-.51,1.18-.77,2.22-.77h1.05v1.36h-1.26Z"/><path d="M1887.63,647.49h-8.12c.14,.79,.53,1.44,1.15,1.95,.64,.52,1.35,.78,2.14,.78,.53,0,1.04-.12,1.52-.37,.48-.25,.88-.58,1.21-1.02h1.68c-.39,.88-.98,1.58-1.77,2.09-.79,.51-1.6,.77-2.41,.77s-1.52-.12-2.1-.38-1.09-.6-1.53-1.03c-.94-.93-1.42-2.06-1.42-3.4s.47-2.47,1.42-3.41c.95-.94,2.08-1.42,3.41-1.42s2.42,.46,3.37,1.37c.97,.93,1.46,2.02,1.46,3.3v.78Zm-2.74-3.21c-.61-.5-1.3-.76-2.09-.76-1.2,0-2.14,.54-2.83,1.63-.21,.33-.36,.69-.44,1.08h6.55c-.17-.79-.56-1.44-1.19-1.95Z"/><path d="M1893.71,643.76c-.38,0-.71,.11-.98,.33-.27,.22-.5,.48-.68,.8-.35,.61-.52,1.29-.52,2.05v4.62h-1.47v-9.24h1.47v1.91l.06-.38c.49-1.15,1.25-1.72,2.29-1.72,.32,0,.63,.06,.92,.19v1.91c-.34-.31-.7-.46-1.08-.46Z"/><path d="M1903.92,651.55v-1.58c-.08,.11-.17,.21-.26,.32-.87,.98-1.95,1.47-3.22,1.47s-2.35-.49-3.22-1.47c-.85-.95-1.27-2.07-1.27-3.36s.42-2.41,1.27-3.36c.87-.98,1.95-1.47,3.22-1.47s2.35,.49,3.22,1.47c.09,.1,.18,.21,.26,.32v-1.58h1.47v9.24h-1.47Zm-.93-6.97c-.63-.67-1.4-1.01-2.32-1.01s-1.69,.34-2.32,1.01c-.62,.67-.93,1.45-.93,2.35s.31,1.68,.93,2.35c.63,.67,1.4,1.01,2.32,1.01s1.69-.34,2.32-1.01c.62-.67,.93-1.45,.93-2.35s-.31-1.68-.93-2.35Z"/></g><g><path d="M1816.75,732.74c-.93,.65-1.95,.97-3.06,.97-1.51,0-2.79-.55-3.86-1.67-1.05-1.09-1.57-2.4-1.57-3.92,0-.76,.14-1.48,.42-2.15,.28-.68,.66-1.27,1.15-1.79,1.06-1.11,2.35-1.66,3.86-1.66,1.11,0,2.13,.32,3.04,.95s1.58,1.47,1.99,2.5h-1.23c-.59-1.08-1.47-1.79-2.63-2.14-.38-.11-.82-.17-1.32-.17s-1.01,.12-1.54,.36c-.52,.24-.98,.56-1.37,.97-.83,.86-1.24,1.9-1.24,3.12s.41,2.24,1.24,3.1c.85,.89,1.87,1.33,3.07,1.33,.81,0,1.56-.21,2.23-.64s1.2-.99,1.58-1.7h1.23c-.4,1.04-1.07,1.88-1.98,2.52Z"/><path d="M1826.01,733.55v-1.2c-.06,.08-.13,.16-.2,.24-.67,.75-1.48,1.12-2.46,1.12s-1.79-.37-2.46-1.12c-.65-.73-.97-1.58-.97-2.56s.32-1.84,.97-2.56c.67-.75,1.48-1.12,2.46-1.12s1.79,.37,2.46,1.12c.07,.08,.14,.16,.2,.24v-1.2h1.12v7.04h-1.12Zm-.71-5.31c-.48-.51-1.07-.77-1.77-.77s-1.29,.26-1.77,.77c-.48,.51-.71,1.11-.71,1.79s.24,1.28,.71,1.79c.48,.51,1.07,.77,1.77,.77s1.29-.26,1.77-.77c.47-.51,.71-1.11,.71-1.79s-.24-1.28-.71-1.79Z"/><path d="M1829.53,737.55v-11.04h1.12v1.2c.06-.08,.13-.16,.2-.24,.67-.75,1.48-1.12,2.46-1.12s1.79,.37,2.46,1.12c.65,.72,.97,1.58,.97,2.56s-.32,1.84-.97,2.56c-.67,.75-1.48,1.12-2.46,1.12s-1.79-.37-2.46-1.12c-.07-.08-.14-.16-.2-.24v5.21h-1.12Zm5.37-9.32c-.48-.51-1.07-.77-1.77-.77s-1.29,.26-1.77,.77c-.47,.51-.71,1.11-.71,1.79s.24,1.28,.71,1.79c.48,.51,1.07,.77,1.77,.77s1.29-.26,1.77-.77c.47-.51,.71-1.11,.71-1.79s-.24-1.28-.71-1.79Z"/><path d="M1844.25,733.55v-1.2c-.06,.08-.13,.16-.2,.24-.67,.75-1.48,1.12-2.46,1.12s-1.79-.37-2.46-1.12c-.65-.73-.97-1.58-.97-2.56s.32-1.84,.97-2.56c.67-.75,1.48-1.12,2.46-1.12s1.79,.37,2.46,1.12c.07,.08,.14,.16,.2,.24v-1.2h1.12v7.04h-1.12Zm-.71-5.31c-.48-.51-1.07-.77-1.77-.77s-1.29,.26-1.77,.77c-.47,.51-.71,1.11-.71,1.79s.24,1.28,.71,1.79c.48,.51,1.07,.77,1.77,.77s1.29-.26,1.77-.77c.48-.51,.71-1.11,.71-1.79s-.24-1.28-.71-1.79Z"/><path d="M1857.69,733.55v-1.2c-.06,.08-.13,.16-.2,.24-.67,.75-1.48,1.12-2.46,1.12s-1.79-.37-2.46-1.12c-.65-.73-.97-1.58-.97-2.56s.32-1.84,.97-2.56c.67-.75,1.48-1.12,2.46-1.12s1.79,.37,2.46,1.12c.07,.08,.14,.16,.2,.24v-6.17h1.12v12h-1.12Zm-.71-5.31c-.48-.51-1.07-.77-1.77-.77s-1.29,.26-1.77,.77c-.48,.51-.71,1.11-.71,1.79s.24,1.28,.71,1.79c.48,.51,1.07,.77,1.77,.77s1.29-.26,1.77-.77c.48-.51,.71-1.11,.71-1.79s-.24-1.28-.71-1.79Z"/><path d="M1868.09,730.46h-6.19c.11,.6,.4,1.1,.88,1.49,.49,.39,1.03,.59,1.63,.59,.41,0,.79-.09,1.16-.28,.37-.19,.67-.45,.92-.78h1.28c-.3,.67-.75,1.2-1.35,1.59-.6,.39-1.22,.58-1.84,.58s-1.16-.1-1.6-.29c-.44-.19-.83-.45-1.17-.78-.72-.71-1.08-1.57-1.08-2.59s.36-1.88,1.08-2.6c.72-.72,1.59-1.08,2.6-1.08s1.84,.35,2.57,1.04c.74,.71,1.11,1.54,1.11,2.51v.59Zm-2.09-2.45c-.46-.38-.99-.58-1.59-.58-.91,0-1.63,.41-2.16,1.24-.16,.25-.27,.53-.34,.82h4.99c-.13-.6-.43-1.09-.9-1.49Z"/><path d="M1880.05,732.59c-.73,.71-1.59,1.07-2.6,1.07s-1.88-.36-2.6-1.07c-.72-.71-1.08-1.57-1.08-2.59s.36-1.88,1.08-2.6c.72-.72,1.59-1.08,2.6-1.08s1.88,.36,2.6,1.08c.72,.72,1.08,1.59,1.08,2.6s-.36,1.88-1.08,2.59Zm-.79-4.4c-.5-.5-1.11-.75-1.81-.75s-1.31,.25-1.81,.75-.75,1.1-.75,1.81,.25,1.29,.75,1.79c.5,.5,1.1,.75,1.81,.75s1.31-.25,1.81-.75c.5-.5,.75-1.1,.75-1.79s-.25-1.31-.75-1.81Z"/><path d="M1886.62,727.54h-4.34v-1.04h6.48l-4.61,6h4.82v1.04h-6.96l4.61-6Z"/><path d="M1896.13,732.59c-.73,.71-1.59,1.07-2.6,1.07s-1.87-.36-2.6-1.07c-.72-.71-1.08-1.57-1.08-2.59s.36-1.88,1.08-2.6c.72-.72,1.59-1.08,2.6-1.08s1.88,.36,2.6,1.08c.72,.72,1.08,1.59,1.08,2.6s-.36,1.88-1.08,2.59Zm-.79-4.4c-.5-.5-1.1-.75-1.81-.75s-1.31,.25-1.81,.75-.75,1.1-.75,1.81,.25,1.29,.75,1.79c.5,.5,1.1,.75,1.81,.75s1.31-.25,1.81-.75,.75-1.1,.75-1.79-.25-1.31-.75-1.81Z"/><path d="M1903.99,729.14c0-.46-.1-.85-.31-1.18s-.55-.49-1.03-.49-.87,.09-1.17,.27c-.3,.18-.54,.42-.73,.71-.34,.53-.5,1.24-.5,2.14v2.95h-1.12v-7.04h1.12v1.21c.23-.39,.53-.72,.9-.96,.38-.26,.83-.39,1.33-.39s.91,.07,1.22,.22c.31,.14,.57,.34,.78,.59,.43,.5,.64,1.16,.64,1.98v4.4h-1.12v-4.4Z"/><path d="M1913.07,732.59c-.73,.71-1.59,1.07-2.6,1.07s-1.88-.36-2.6-1.07c-.72-.71-1.08-1.57-1.08-2.59s.36-1.88,1.08-2.6c.72-.72,1.59-1.08,2.6-1.08s1.88,.36,2.6,1.08c.72,.72,1.08,1.59,1.08,2.6s-.36,1.88-1.08,2.59Zm-.79-4.4c-.5-.5-1.11-.75-1.81-.75s-1.31,.25-1.81,.75-.75,1.1-.75,1.81,.25,1.29,.75,1.79c.5,.5,1.1,.75,1.81,.75s1.31-.25,1.81-.75c.5-.5,.75-1.1,.75-1.79s-.25-1.31-.75-1.81Z"/></g><g><path d="M443.04,875.55l-1.17-2.96h-4.78l-1.17,2.96h-1.22l4.79-11.64,4.77,11.64h-1.22Zm-1.58-4l-1.98-5.01-1.98,5.01h3.96Z"/><path d="M445.62,875.55v-12h1.12v12h-1.12Z"/><path d="M448.26,868.5h1.76v-2.74h1.12v2.74h1.74v1.04h-1.74v6h-1.12v-6h-1.76v-1.04Z"/><path d="M456.91,875.69c-.79,0-1.41-.26-1.85-.78-.44-.52-.66-1.19-.66-2v-4.4h1.12v4.4c0,.46,.1,.85,.31,1.18,.21,.33,.55,.49,1.03,.49,.87,0,1.49-.28,1.86-.83,.36-.55,.55-1.32,.55-2.29v-2.95h1.12v7.04h-1.12v-1.21c-.53,.9-1.31,1.35-2.35,1.35Z"/><path d="M465.34,869.61c-.29,0-.54,.08-.75,.25s-.38,.37-.52,.61c-.27,.46-.4,.98-.4,1.56v3.52h-1.12v-7.04h1.12v1.46l.05-.29c.38-.88,.96-1.31,1.74-1.31,.25,0,.48,.05,.7,.14v1.46c-.26-.24-.53-.35-.83-.35Z"/><path d="M473.12,875.55v-1.2c-.06,.08-.13,.16-.2,.24-.67,.75-1.48,1.12-2.46,1.12s-1.79-.37-2.46-1.12c-.65-.73-.97-1.58-.97-2.56s.32-1.84,.97-2.56c.67-.75,1.48-1.12,2.46-1.12s1.79,.37,2.46,1.12c.07,.08,.14,.16,.2,.24v-1.2h1.12v7.04h-1.12Zm-.71-5.31c-.48-.51-1.07-.77-1.77-.77s-1.29,.26-1.77,.77c-.48,.51-.71,1.11-.71,1.79s.24,1.28,.71,1.79c.48,.51,1.07,.77,1.77,.77s1.29-.26,1.77-.77c.48-.51,.71-1.11,.71-1.79s-.24-1.28-.71-1.79Z"/><path d="M479.92,868.5h1.22l2.03,5.23,2.02-5.23h1.22l-3.23,7.71-3.25-7.71Z"/><path d="M490.27,875.69c-.79,0-1.41-.26-1.85-.78-.44-.52-.66-1.19-.66-2v-4.4h1.12v4.4c0,.46,.1,.85,.31,1.18,.21,.33,.55,.49,1.03,.49,.87,0,1.49-.28,1.86-.83,.36-.55,.55-1.32,.55-2.29v-2.95h1.12v7.04h-1.12v-1.21c-.53,.9-1.31,1.35-2.35,1.35Z"/><path d="M502.79,872.46h-6.19c.11,.6,.4,1.1,.88,1.49,.49,.39,1.03,.59,1.63,.59,.41,0,.79-.09,1.16-.28,.37-.19,.67-.45,.92-.78h1.28c-.3,.67-.75,1.2-1.35,1.59-.6,.39-1.22,.58-1.84,.58s-1.16-.1-1.6-.29c-.44-.19-.83-.45-1.17-.78-.72-.71-1.08-1.57-1.08-2.59s.36-1.88,1.08-2.6c.72-.72,1.59-1.08,2.6-1.08s1.84,.35,2.57,1.04c.74,.71,1.11,1.54,1.11,2.51v.59Zm-2.09-2.45c-.46-.38-.99-.58-1.59-.58-.91,0-1.63,.41-2.16,1.24-.16,.25-.27,.53-.34,.82h4.99c-.13-.6-.43-1.09-.9-1.49Z"/><path d="M504.62,875.55v-12h1.12v12h-1.12Z"/><path d="M513.95,874.59c-.73,.71-1.59,1.07-2.6,1.07s-1.87-.36-2.6-1.07c-.72-.71-1.08-1.57-1.08-2.59s.36-1.88,1.08-2.6c.72-.72,1.59-1.08,2.6-1.08s1.88,.36,2.6,1.08c.72,.72,1.08,1.59,1.08,2.6s-.36,1.88-1.08,2.59Zm-.79-4.4c-.5-.5-1.1-.75-1.81-.75s-1.31,.25-1.81,.75c-.5,.5-.75,1.1-.75,1.81s.25,1.29,.75,1.79c.5,.5,1.1,.75,1.81,.75s1.31-.25,1.81-.75,.75-1.1,.75-1.79-.25-1.31-.75-1.81Z"/><path d="M519.05,874.83c1.03,0,1.54-.38,1.54-1.15,0-.45-.37-.79-1.1-1.03-.31-.1-.64-.2-1-.28s-.69-.2-1.01-.34c-.36-.17-.64-.38-.82-.64-.18-.26-.27-.56-.27-.91,0-.7,.25-1.23,.74-1.59,.49-.36,1.08-.54,1.76-.54s1.25,.14,1.7,.42c.45,.28,.75,.77,.9,1.48h-1.2c-.12-.39-.3-.65-.55-.78-.24-.13-.54-.19-.89-.19s-.65,.08-.9,.23c-.26,.15-.38,.39-.38,.71s.11,.55,.32,.7c.21,.15,.47,.27,.78,.36,.31,.1,.64,.19,1,.27,.36,.08,.7,.2,1.01,.34,.72,.35,1.09,.9,1.09,1.66s-.27,1.32-.81,1.68c-.27,.18-.57,.32-.91,.41-.33,.09-.68,.13-1.06,.13-1.63,0-2.57-.73-2.81-2.18h1.19c.12,.46,.32,.78,.6,.97,.28,.19,.64,.28,1.09,.28Z"/><path d="M533.06,871.03c-.19-.45-.49-.81-.9-1.09-.41-.28-.82-.42-1.23-.42s-.77,.07-1.07,.2-.56,.31-.78,.54c-.47,.5-.71,1.08-.71,1.75s.24,1.27,.71,1.77c.47,.5,1.05,.74,1.74,.74,.45,0,.86-.12,1.24-.35,.38-.24,.68-.55,.89-.94h1.26c-.4,1.13-1.16,1.89-2.29,2.28-.35,.12-.75,.18-1.2,.18s-.89-.1-1.33-.3-.82-.46-1.14-.8c-.69-.73-1.04-1.59-1.04-2.58s.35-1.86,1.04-2.58c.7-.73,1.56-1.09,2.56-1.09,.81,0,1.54,.25,2.19,.75,.63,.48,1.05,1.12,1.27,1.92h-1.22Z"/><path d="M541.83,874.59c-.73,.71-1.59,1.07-2.6,1.07s-1.87-.36-2.6-1.07c-.72-.71-1.08-1.57-1.08-2.59s.36-1.88,1.08-2.6c.72-.72,1.59-1.08,2.6-1.08s1.88,.36,2.6,1.08c.72,.72,1.08,1.59,1.08,2.6s-.36,1.88-1.08,2.59Zm-.79-4.4c-.5-.5-1.1-.75-1.81-.75s-1.31,.25-1.81,.75c-.5,.5-.75,1.1-.75,1.81s.25,1.29,.75,1.79c.5,.5,1.1,.75,1.81,.75s1.31-.25,1.81-.75,.75-1.1,.75-1.79-.25-1.31-.75-1.81Z"/><path d="M553.76,871.11c0-.73-.23-1.24-.69-1.53-.16-.1-.41-.15-.74-.15s-.64,.1-.93,.29c-.29,.19-.52,.44-.69,.74-.07,.12-.13,.25-.18,.39,0,.09,0,.18,0,.27v4.4h-1.12v-4.4c0-.73-.23-1.24-.69-1.53-.16-.1-.41-.15-.74-.15s-.64,.1-.93,.29c-.29,.19-.52,.44-.69,.74-.23,.4-.37,.88-.43,1.45v3.6h-1.12v-7.04h1.12v1.12c.21-.36,.48-.65,.79-.88,.37-.27,.8-.4,1.29-.4s.89,.08,1.18,.23c.3,.16,.55,.36,.74,.62,.12,.15,.21,.31,.3,.49,.22-.38,.49-.7,.82-.94,.37-.27,.8-.4,1.29-.4s.89,.08,1.18,.23c.3,.16,.55,.36,.74,.62,.39,.51,.58,1.16,.58,1.95v4.4h-1.12v-4.4Z"/><path d="M563.92,872.46h-6.19c.11,.6,.4,1.1,.88,1.49,.49,.39,1.03,.59,1.63,.59,.41,0,.79-.09,1.16-.28,.37-.19,.67-.45,.92-.78h1.28c-.3,.67-.75,1.2-1.35,1.59-.6,.39-1.22,.58-1.84,.58s-1.16-.1-1.6-.29c-.44-.19-.83-.45-1.17-.78-.72-.71-1.08-1.57-1.08-2.59s.36-1.88,1.08-2.6c.72-.72,1.59-1.08,2.6-1.08s1.84,.35,2.57,1.04c.74,.71,1.11,1.54,1.11,2.51v.59Zm-2.09-2.45c-.46-.38-.99-.58-1.59-.58-.91,0-1.63,.41-2.16,1.24-.16,.25-.27,.53-.34,.82h4.99c-.13-.6-.43-1.09-.9-1.49Z"/><path d="M568.55,869.61c-.29,0-.54,.08-.75,.25s-.38,.37-.52,.61c-.27,.46-.4,.98-.4,1.56v3.52h-1.12v-7.04h1.12v1.46l.05-.29c.38-.88,.96-1.31,1.74-1.31,.25,0,.48,.05,.7,.14v1.46c-.26-.24-.53-.35-.83-.35Z"/><path d="M576.1,871.03c-.19-.45-.49-.81-.9-1.09-.41-.28-.82-.42-1.23-.42s-.77,.07-1.07,.2-.56,.31-.78,.54c-.47,.5-.71,1.08-.71,1.75s.24,1.27,.71,1.77c.47,.5,1.05,.74,1.74,.74,.45,0,.86-.12,1.24-.35,.38-.24,.67-.55,.89-.94h1.26c-.4,1.13-1.16,1.89-2.29,2.28-.35,.12-.75,.18-1.2,.18s-.89-.1-1.33-.3-.82-.46-1.14-.8c-.69-.73-1.04-1.59-1.04-2.58s.35-1.86,1.04-2.58c.7-.73,1.56-1.09,2.56-1.09,.81,0,1.54,.25,2.19,.75,.63,.48,1.05,1.12,1.27,1.92h-1.22Z"/><path d="M580.41,866.57c0,.2-.07,.37-.21,.5s-.31,.21-.5,.21-.37-.07-.5-.21-.21-.31-.21-.5,.07-.37,.21-.5,.31-.21,.5-.21,.37,.07,.5,.21,.21,.31,.21,.5Zm-1.26,8.97v-7.04h1.12v7.04h-1.12Z"/><path d="M588.34,875.55v-1.2c-.06,.08-.13,.16-.2,.24-.67,.75-1.48,1.12-2.46,1.12s-1.79-.37-2.46-1.12c-.65-.73-.97-1.58-.97-2.56s.32-1.84,.97-2.56c.67-.75,1.48-1.12,2.46-1.12s1.79,.37,2.46,1.12c.07,.08,.14,.16,.2,.24v-1.2h1.12v7.04h-1.12Zm-.71-5.31c-.48-.51-1.07-.77-1.77-.77s-1.29,.26-1.77,.77c-.48,.51-.71,1.11-.71,1.79s.24,1.28,.71,1.79c.48,.51,1.07,.77,1.77,.77s1.29-.26,1.77-.77c.48-.51,.71-1.11,.71-1.79s-.24-1.28-.71-1.79Z"/><path d="M591.85,875.55v-12h1.12v12h-1.12Z"/><path d="M602.26,872.46h-6.19c.11,.6,.4,1.1,.88,1.49,.49,.39,1.03,.59,1.63,.59,.41,0,.79-.09,1.16-.28,.37-.19,.68-.45,.92-.78h1.28c-.3,.67-.75,1.2-1.35,1.59-.6,.39-1.22,.58-1.84,.58s-1.16-.1-1.6-.29c-.44-.19-.83-.45-1.17-.78-.72-.71-1.08-1.57-1.08-2.59s.36-1.88,1.08-2.6c.72-.72,1.59-1.08,2.6-1.08s1.84,.35,2.57,1.04c.74,.71,1.11,1.54,1.11,2.51v.59Zm-2.09-2.45c-.46-.38-.99-.58-1.59-.58-.91,0-1.63,.41-2.16,1.24-.16,.25-.27,.53-.34,.82h4.99c-.13-.6-.43-1.09-.9-1.49Z"/><path d="M606.2,874.83c1.03,0,1.54-.38,1.54-1.15,0-.45-.37-.79-1.1-1.03-.31-.1-.64-.2-1-.28s-.69-.2-1.01-.34c-.36-.17-.64-.38-.82-.64-.18-.26-.27-.56-.27-.91,0-.7,.25-1.23,.74-1.59,.49-.36,1.08-.54,1.76-.54s1.25,.14,1.7,.42c.45,.28,.75,.77,.9,1.48h-1.2c-.12-.39-.3-.65-.55-.78-.24-.13-.54-.19-.89-.19s-.65,.08-.9,.23c-.26,.15-.38,.39-.38,.71s.11,.55,.32,.7c.21,.15,.47,.27,.78,.36,.31,.1,.64,.19,1,.27,.36,.08,.7,.2,1.01,.34,.72,.35,1.09,.9,1.09,1.66s-.27,1.32-.81,1.68c-.27,.18-.57,.32-.91,.41-.33,.09-.68,.13-1.06,.13-1.63,0-2.57-.73-2.81-2.18h1.19c.12,.46,.32,.78,.6,.97,.28,.19,.64,.28,1.09,.28Z"/></g><g><path d="M1807.96,318.23h8.4v1.36h-3.46v12.91h-1.47v-12.91h-3.46v-1.36Z"/><path d="M1825.04,328.49h-8.13c.14,.79,.53,1.44,1.16,1.95,.64,.52,1.35,.78,2.14,.78,.53,0,1.04-.12,1.52-.37,.48-.25,.89-.58,1.21-1.02h1.68c-.39,.88-.98,1.58-1.77,2.09-.79,.51-1.6,.77-2.42,.77s-1.52-.12-2.1-.38c-.58-.25-1.09-.6-1.53-1.03-.95-.93-1.42-2.06-1.42-3.4s.47-2.47,1.42-3.41,2.08-1.42,3.41-1.42,2.42,.46,3.37,1.37c.97,.93,1.46,2.02,1.46,3.3v.78Zm-2.74-3.21c-.61-.5-1.3-.76-2.09-.76-1.2,0-2.14,.54-2.83,1.63-.21,.33-.36,.69-.44,1.08h6.55c-.17-.79-.56-1.44-1.19-1.95Z"/><path d="M1831.11,324.76c-.38,0-.71,.11-.99,.33-.27,.22-.5,.48-.68,.8-.35,.61-.52,1.29-.52,2.05v4.62h-1.47v-9.24h1.47v1.91l.06-.38c.49-1.15,1.25-1.72,2.29-1.72,.32,0,.63,.06,.92,.19v1.91c-.34-.31-.7-.46-1.08-.46Z"/><path d="M1845.7,326.73c0-.96-.3-1.62-.9-2-.21-.13-.53-.2-.97-.2s-.84,.13-1.22,.38-.68,.57-.9,.97c-.09,.16-.17,.33-.24,.51,0,.12,.01,.23,.01,.35v5.77h-1.47v-5.77c0-.96-.3-1.62-.9-2-.21-.13-.53-.2-.97-.2s-.84,.13-1.22,.38c-.38,.25-.68,.57-.9,.97-.3,.52-.49,1.16-.57,1.91v4.73h-1.47v-9.24h1.47v1.47c.28-.47,.62-.86,1.04-1.16,.48-.35,1.05-.53,1.69-.53s1.16,.1,1.55,.3c.39,.2,.72,.47,.98,.81,.15,.2,.28,.41,.39,.64,.28-.5,.64-.91,1.08-1.23,.48-.35,1.05-.53,1.69-.53s1.16,.1,1.55,.3,.72,.47,.98,.81c.51,.66,.77,1.52,.77,2.56v5.77h-1.47v-5.77Z"/><path d="M1857.62,331.29c-.95,.94-2.09,1.41-3.41,1.41s-2.46-.47-3.41-1.41c-.94-.93-1.42-2.06-1.42-3.4s.47-2.47,1.42-3.41c.95-.94,2.08-1.42,3.41-1.42s2.47,.47,3.41,1.42c.94,.95,1.42,2.08,1.42,3.41s-.47,2.47-1.42,3.4Zm-1.04-5.77c-.66-.66-1.45-.99-2.37-.99s-1.71,.33-2.37,.99c-.66,.66-.99,1.45-.99,2.37s.33,1.69,.99,2.35c.66,.66,1.45,.99,2.37,.99s1.71-.33,2.37-.99c.66-.66,.99-1.44,.99-2.35s-.33-1.71-.99-2.37Z"/><path d="M1864.32,331.6c1.35,0,2.02-.5,2.02-1.51,0-.59-.48-1.04-1.44-1.35-.41-.13-.84-.26-1.31-.37-.47-.11-.91-.26-1.32-.45-.48-.22-.83-.5-1.07-.83-.24-.34-.36-.74-.36-1.19,0-.92,.32-1.61,.97-2.08,.65-.47,1.42-.71,2.31-.71s1.64,.18,2.23,.55c.59,.36,.98,1.01,1.18,1.95h-1.58c-.16-.52-.4-.86-.72-1.03-.32-.17-.71-.25-1.16-.25s-.85,.1-1.18,.3c-.34,.2-.5,.51-.5,.92s.14,.72,.42,.91c.27,.19,.61,.35,1.02,.48,.41,.13,.84,.24,1.31,.35,.47,.1,.91,.26,1.32,.45,.95,.45,1.43,1.18,1.43,2.17s-.36,1.73-1.07,2.2c-.36,.24-.75,.42-1.19,.53-.43,.12-.89,.18-1.4,.18-2.14,0-3.37-.95-3.69-2.86h1.55c.16,.6,.42,1.02,.79,1.27,.37,.25,.85,.37,1.43,.37Z"/><path d="M1873.69,318.16c-.49,0-.81,.11-.96,.34-.15,.22-.23,.5-.23,.82v3.99h2.46v1.37h-2.46v7.87h-1.47v-7.87h-1.87v-1.37h1.87v-3.57c0-.94,.22-1.66,.66-2.17,.44-.51,1.18-.77,2.22-.77h1.05v1.36h-1.26Z"/><path d="M1886.19,328.49h-8.12c.14,.79,.53,1.44,1.15,1.95,.64,.52,1.35,.78,2.14,.78,.53,0,1.04-.12,1.52-.37,.48-.25,.88-.58,1.21-1.02h1.68c-.39,.88-.98,1.58-1.77,2.09-.79,.51-1.6,.77-2.41,.77s-1.52-.12-2.1-.38-1.09-.6-1.53-1.03c-.94-.93-1.42-2.06-1.42-3.4s.47-2.47,1.42-3.41c.95-.94,2.08-1.42,3.41-1.42s2.42,.46,3.37,1.37c.97,.93,1.46,2.02,1.46,3.3v.78Zm-2.74-3.21c-.61-.5-1.3-.76-2.09-.76-1.2,0-2.14,.54-2.83,1.63-.21,.33-.36,.69-.44,1.08h6.55c-.17-.79-.56-1.44-1.19-1.95Z"/><path d="M1892.26,324.76c-.38,0-.71,.11-.98,.33-.27,.22-.5,.48-.68,.8-.35,.61-.52,1.29-.52,2.05v4.62h-1.47v-9.24h1.47v1.91l.06-.38c.49-1.15,1.25-1.72,2.29-1.72,.32,0,.63,.06,.92,.19v1.91c-.34-.31-.7-.46-1.08-.46Z"/><path d="M1902.48,332.55v-1.58c-.08,.11-.17,.21-.26,.32-.87,.98-1.95,1.47-3.22,1.47s-2.35-.49-3.22-1.47c-.85-.95-1.27-2.07-1.27-3.36s.42-2.41,1.27-3.36c.87-.98,1.95-1.47,3.22-1.47s2.35,.49,3.22,1.47c.09,.1,.18,.21,.26,.32v-1.58h1.47v9.24h-1.47Zm-.93-6.97c-.63-.67-1.4-1.01-2.32-1.01s-1.69,.34-2.32,1.01c-.62,.67-.93,1.45-.93,2.35s.31,1.68,.93,2.35c.63,.67,1.4,1.01,2.32,1.01s1.69-.34,2.32-1.01c.62-.67,.93-1.45,.93-2.35s-.31-1.68-.93-2.35Z"/></g><g><path d="M1603.75,1008.27h1.6l4.89,11.51,4.87-11.51h1.6l-6.47,15.14-6.49-15.14Z"/><path d="M1618.1,1012.06c0-1.34,.47-2.34,1.41-3.01,.94-.67,2.04-1,3.31-1,2.78,0,4.42,1.04,4.95,3.11h-1.59c-.28-1.23-1.4-1.85-3.36-1.85-1.38,0-2.34,.41-2.89,1.23-.21,.3-.31,.69-.31,1.15,0,.87,.47,1.55,1.43,2.03,.45,.24,1.4,.55,2.86,.92,1.45,.38,2.51,.8,3.16,1.26,.91,.64,1.37,1.55,1.37,2.72,0,1.43-.57,2.52-1.7,3.26-.95,.62-2.13,.93-3.53,.93-3.16,0-5-1.2-5.5-3.61h1.74c.27,1.51,1.52,2.27,3.76,2.27,1.6,0,2.71-.44,3.35-1.33,.25-.34,.37-.81,.37-1.41s-.23-1.08-.69-1.45c-.66-.54-1.92-1.03-3.76-1.47-2.91-.67-4.37-1.92-4.37-3.75Z"/><path d="M1630.15,1012.06c0-1.34,.47-2.34,1.41-3.01,.94-.67,2.04-1,3.31-1,2.78,0,4.43,1.04,4.95,3.11h-1.59c-.29-1.23-1.4-1.85-3.36-1.85-1.38,0-2.34,.41-2.89,1.23-.21,.3-.31,.69-.31,1.15,0,.87,.47,1.55,1.43,2.03,.45,.24,1.4,.55,2.86,.92,1.46,.38,2.51,.8,3.17,1.26,.91,.64,1.37,1.55,1.37,2.72,0,1.43-.57,2.52-1.7,3.26-.95,.62-2.13,.93-3.53,.93-3.16,0-4.99-1.2-5.5-3.61h1.74c.27,1.51,1.52,2.27,3.76,2.27,1.6,0,2.71-.44,3.35-1.33,.25-.34,.37-.81,.37-1.41s-.23-1.08-.69-1.45c-.66-.54-1.92-1.03-3.76-1.47-2.91-.67-4.37-1.92-4.37-3.75Z"/><path d="M1657.09,1021.48c-.95,.84-2.22,1.26-3.8,1.26s-2.87-.42-3.82-1.26c-1.01-.89-1.51-2.11-1.51-3.65v-9.55h1.47v9.76c0,1.07,.39,1.9,1.17,2.48,.68,.5,1.58,.76,2.7,.76,1.74,0,2.92-.59,3.53-1.76,.21-.41,.31-.9,.31-1.47v-9.76h1.47v9.55c0,1.55-.5,2.76-1.51,3.65Z"/><path d="M1667.82,1016.77c0-.6-.14-1.12-.41-1.54-.27-.43-.72-.64-1.35-.64s-1.14,.12-1.53,.36-.71,.55-.96,.93c-.44,.69-.66,1.63-.66,2.8v3.86h-1.47v-9.24h1.47v1.59c.31-.52,.7-.94,1.18-1.26,.5-.34,1.08-.51,1.74-.51s1.19,.09,1.6,.28c.41,.19,.75,.45,1.03,.78,.56,.66,.84,1.52,.84,2.59v5.77h-1.47v-5.77Z"/><path d="M1673.89,1010.78c0,.26-.09,.48-.27,.66-.18,.18-.4,.27-.66,.27s-.48-.09-.66-.27c-.18-.18-.27-.4-.27-.66s.09-.48,.27-.66c.18-.18,.4-.27,.66-.27s.48,.09,.66,.27,.27,.4,.27,.66Zm-1.66,11.77v-9.24h1.47v9.24h-1.47Z"/><path d="M1675.78,1013.31h2.31v-3.59h1.47v3.59h2.29v1.37h-2.29v7.87h-1.47v-7.87h-2.31v-1.37Z"/><path d="M1683.24,1027.79l3.11-6.76-3.86-7.73h1.68l2.96,6.19,2.65-6.19h1.64l-6.38,14.49h-1.78Z"/><path d="M1707.26,1021.48c-.95,.84-2.22,1.26-3.8,1.26s-2.87-.42-3.82-1.26c-1.01-.89-1.51-2.11-1.51-3.65v-9.55h1.47v9.76c0,1.07,.39,1.9,1.17,2.48,.68,.5,1.58,.76,2.7,.76,1.74,0,2.92-.59,3.53-1.76,.21-.41,.31-.9,.31-1.47v-9.76h1.47v9.55c0,1.55-.5,2.76-1.51,3.65Z"/><path d="M1717.99,1016.77c0-.6-.14-1.12-.41-1.54-.27-.43-.72-.64-1.35-.64s-1.14,.12-1.53,.36-.71,.55-.96,.93c-.44,.69-.66,1.63-.66,2.8v3.86h-1.47v-9.24h1.47v1.59c.31-.52,.7-.94,1.18-1.26,.5-.34,1.08-.51,1.74-.51s1.19,.09,1.6,.28c.41,.19,.75,.45,1.03,.78,.56,.66,.84,1.52,.84,2.59v5.77h-1.47v-5.77Z"/><path d="M1724.06,1010.78c0,.26-.09,.48-.27,.66-.18,.18-.4,.27-.66,.27s-.48-.09-.66-.27c-.18-.18-.27-.4-.27-.66s.09-.48,.27-.66c.18-.18,.4-.27,.66-.27s.48,.09,.66,.27,.27,.4,.27,.66Zm-1.66,11.77v-9.24h1.47v9.24h-1.47Z"/><path d="M1725.95,1013.31h2.31v-3.59h1.47v3.59h2.29v1.37h-2.29v7.87h-1.47v-7.87h-2.31v-1.37Z"/><path d="M1733.41,1027.79l3.11-6.76-3.86-7.73h1.68l2.96,6.19,2.65-6.19h1.64l-6.38,14.49h-1.78Z"/><path d="M1755.75,1015.09c.63-.63,.94-1.4,.94-2.31s-.33-1.65-.98-2.29c-.65-.63-1.42-.94-2.34-.94s-1.73,.35-2.38,1.05c-.67,.72-.97,1.53-.89,2.42h-1.49c-.06-1.38,.39-2.54,1.33-3.51,.96-.98,2.13-1.47,3.5-1.47s2.45,.46,3.41,1.4c.94,.92,1.42,2.04,1.42,3.37s-.46,2.41-1.39,3.34l-4.98,4.93h6.51v1.47h-10.06l7.39-7.45Z"/><path d="M1768.66,1015.09c.63-.63,.95-1.4,.95-2.31s-.33-1.65-.98-2.29c-.64-.63-1.43-.94-2.34-.94s-1.73,.35-2.38,1.05c-.68,.72-.97,1.53-.89,2.42h-1.49c-.06-1.38,.39-2.54,1.33-3.51,.96-.98,2.13-1.47,3.5-1.47s2.45,.46,3.41,1.4c.94,.92,1.42,2.04,1.42,3.37s-.46,2.41-1.39,3.34l-4.98,4.93h6.51v1.47h-10.06l7.39-7.45Z"/></g><g><path d="M102.37,894.57h-2.06v-1.28l3.53-.38v14.45h-1.47v-12.79Z"/><path d="M107.36,905.06c-.68-1.32-1.02-2.94-1.02-4.86s.34-3.54,1.02-4.86c.85-1.66,2.12-2.49,3.81-2.49s2.96,.83,3.81,2.49c.68,1.32,1.02,2.94,1.02,4.86s-.34,3.54-1.02,4.86c-.85,1.66-2.12,2.49-3.81,2.49s-2.96-.83-3.81-2.49Zm3.74-10.63c-.47,0-.87,.1-1.22,.3-.34,.2-.64,.47-.88,.81-.24,.34-.44,.71-.6,1.13s-.27,.84-.36,1.27c-.15,.78-.23,1.44-.23,1.97s.02,1,.05,1.4c.04,.41,.09,.83,.18,1.26,.08,.43,.21,.86,.37,1.27,.16,.41,.36,.78,.61,1.11,.55,.73,1.26,1.1,2.13,1.1,.78,0,1.44-.37,1.98-1.11,.64-.88,1.04-2.09,1.21-3.64,.04-.4,.06-.75,.06-1.04,0-1.26-.2-2.45-.61-3.58-.32-.89-.81-1.53-1.48-1.94-.34-.21-.75-.31-1.22-.31Z"/></g><g><path d="M107.98,820.91c.63-.63,.94-1.4,.94-2.31s-.33-1.65-.98-2.29c-.64-.63-1.42-.94-2.34-.94s-1.73,.35-2.38,1.05c-.68,.72-.97,1.53-.89,2.41h-1.49c-.06-1.38,.39-2.54,1.33-3.51,.96-.98,2.13-1.47,3.5-1.47s2.45,.47,3.41,1.4c.95,.92,1.42,2.04,1.42,3.37s-.46,2.41-1.39,3.34l-4.98,4.93h6.51v1.47h-10.06l7.39-7.45Z"/><path d="M114.25,826.06c-.68-1.32-1.02-2.94-1.02-4.86s.34-3.54,1.02-4.86c.85-1.66,2.12-2.49,3.81-2.49s2.96,.83,3.81,2.49c.68,1.32,1.02,2.94,1.02,4.86s-.34,3.54-1.02,4.86c-.85,1.66-2.12,2.49-3.81,2.49s-2.96-.83-3.81-2.49Zm3.74-10.63c-.47,0-.88,.1-1.22,.3-.34,.2-.64,.47-.88,.81-.25,.34-.44,.71-.6,1.13s-.27,.84-.36,1.27c-.15,.78-.23,1.44-.23,1.97s.02,1,.05,1.4c.03,.41,.09,.83,.18,1.26,.08,.43,.21,.86,.37,1.27,.16,.41,.36,.78,.61,1.11,.55,.73,1.26,1.1,2.13,1.1,.78,0,1.44-.37,1.98-1.11,.64-.88,1.04-2.09,1.21-3.64,.04-.4,.06-.75,.06-1.04,0-1.26-.2-2.45-.61-3.58-.32-.89-.81-1.53-1.48-1.94-.34-.21-.75-.31-1.22-.31Z"/></g><g><path d="M105.01,748.57c-.58,0-1.11-.08-1.58-.23s-.91-.37-1.31-.64c-.85-.58-1.44-1.34-1.77-2.28l1.43-.48c.24,.66,.64,1.18,1.22,1.56,.57,.38,1.15,.58,1.72,.58s1.06-.09,1.47-.26,.76-.41,1.06-.7c.67-.65,1-1.42,1-2.31s-.33-1.69-.98-2.34-1.44-.98-2.36-.98-1.72,.34-2.39,1.01l-1.11-.9,4.33-5.04h-4.7v-1.47h7.68l-4.47,5.29,.63-.38c1.38,.09,2.51,.57,3.41,1.44,.96,.93,1.44,2.06,1.44,3.39s-.47,2.46-1.42,3.37c-.44,.43-.95,.76-1.53,1.01-.58,.25-1.16,.37-1.74,.37Z"/><path d="M112.25,746.06c-.68-1.32-1.02-2.94-1.02-4.86s.34-3.54,1.02-4.86c.85-1.66,2.12-2.49,3.81-2.49s2.96,.83,3.81,2.49c.68,1.32,1.02,2.94,1.02,4.86s-.34,3.54-1.02,4.86c-.85,1.66-2.12,2.49-3.81,2.49s-2.96-.83-3.81-2.49Zm3.74-10.63c-.47,0-.88,.1-1.22,.3-.34,.2-.64,.47-.88,.81-.25,.34-.44,.71-.6,1.13s-.27,.84-.36,1.27c-.15,.78-.23,1.44-.23,1.97s.02,1,.05,1.4c.03,.41,.09,.83,.18,1.26,.08,.43,.21,.86,.37,1.27,.16,.41,.36,.78,.61,1.11,.55,.73,1.26,1.1,2.13,1.1,.78,0,1.44-.37,1.98-1.11,.64-.88,1.04-2.09,1.21-3.64,.04-.4,.06-.75,.06-1.04,0-1.26-.2-2.45-.61-3.58-.32-.89-.81-1.53-1.48-1.94-.34-.21-.75-.31-1.22-.31Z"/></g><g><path d="M109.17,666.36h-1.53v-2.92h-8.06l7.52-11.36h2.06l.02,9.85h1.81v1.51h-1.81v2.92Zm-6.99-4.43h5.46v-8.25l-5.46,8.25Z"/><path d="M114.04,664.06c-.68-1.32-1.02-2.94-1.02-4.86s.34-3.54,1.02-4.86c.85-1.66,2.12-2.49,3.81-2.49s2.96,.83,3.81,2.49c.68,1.32,1.02,2.94,1.02,4.86s-.34,3.54-1.02,4.86c-.85,1.66-2.12,2.49-3.81,2.49s-2.96-.83-3.81-2.49Zm3.74-10.63c-.47,0-.88,.1-1.22,.3-.34,.2-.64,.47-.88,.81-.25,.34-.44,.71-.6,1.13s-.27,.84-.36,1.27c-.15,.78-.23,1.44-.23,1.97s.02,1,.05,1.4c.03,.41,.09,.83,.18,1.26,.08,.43,.21,.86,.37,1.27,.16,.41,.36,.78,.61,1.11,.55,.73,1.26,1.1,2.13,1.1,.78,0,1.44-.37,1.98-1.11,.64-.88,1.04-2.09,1.21-3.64,.04-.4,.06-.75,.06-1.04,0-1.26-.2-2.45-.61-3.58-.32-.89-.81-1.53-1.48-1.94-.34-.21-.75-.31-1.22-.31Z"/></g><g><path d="M105.02,578.04c.61,0,1.21,.12,1.78,.37,.57,.24,1.08,.58,1.51,1,.92,.89,1.39,2.01,1.39,3.34s-.47,2.48-1.41,3.43c-.94,.96-2.09,1.44-3.44,1.44-1.01,0-1.93-.29-2.78-.87-.84-.57-1.43-1.33-1.77-2.28l1.43-.46c.24,.63,.64,1.14,1.22,1.53s1.15,.59,1.73,.59,1.07-.09,1.47-.26c.4-.17,.75-.41,1.06-.7,.66-.63,.99-1.4,.99-2.31s-.32-1.66-.97-2.33c-.63-.66-1.37-.99-2.21-.99s-1.57,.22-2.17,.67l-1.6-.71,1.64-6.4h6.28v1.47h-5.17l-.97,3.82c.72-.22,1.38-.34,2-.34Z"/><path d="M112.88,585.06c-.68-1.32-1.02-2.94-1.02-4.86s.34-3.54,1.02-4.86c.85-1.66,2.12-2.49,3.81-2.49s2.96,.83,3.81,2.49c.68,1.32,1.02,2.94,1.02,4.86s-.34,3.54-1.02,4.86c-.85,1.66-2.12,2.49-3.81,2.49s-2.96-.83-3.81-2.49Zm3.74-10.63c-.47,0-.88,.1-1.22,.3-.34,.2-.64,.47-.88,.81-.25,.34-.44,.71-.6,1.13s-.27,.84-.36,1.27c-.15,.78-.23,1.44-.23,1.97s.02,1,.05,1.4c.03,.41,.09,.83,.18,1.26,.08,.43,.21,.86,.37,1.27,.16,.41,.36,.78,.61,1.11,.55,.73,1.26,1.1,2.13,1.1,.78,0,1.44-.37,1.98-1.11,.64-.88,1.04-2.09,1.21-3.64,.04-.4,.06-.75,.06-1.04,0-1.26-.2-2.45-.61-3.58-.32-.89-.81-1.53-1.48-1.94-.34-.21-.75-.31-1.22-.31Z"/></g><g><path d="M109.07,503.69c-.25,.57-.59,1.08-1.03,1.51-.92,.92-2.06,1.39-3.4,1.39s-2.46-.47-3.4-1.4c-.94-.92-1.41-2.05-1.41-3.37,0-1.15,.36-2.15,1.07-3l5.58-6.74h1.93l-4.37,5.25,.42-.27c1.43,.06,2.6,.5,3.51,1.32,.98,.89,1.47,2.02,1.47,3.4,0,.7-.13,1.34-.38,1.91Zm-5.69-4.86c-.41,.17-.76,.41-1.07,.7-.66,.63-.99,1.39-.99,2.29s.33,1.68,.99,2.32c.67,.65,1.45,.98,2.35,.98s1.7-.31,2.33-.94,.97-1.41,.97-2.29-.32-1.68-.96-2.33c-.64-.66-1.42-.99-2.33-.99-.45,0-.89,.09-1.29,.26Z"/><path d="M112.08,504.06c-.68-1.32-1.02-2.94-1.02-4.86s.34-3.54,1.02-4.86c.85-1.66,2.12-2.49,3.81-2.49s2.96,.83,3.81,2.49c.68,1.32,1.02,2.94,1.02,4.86s-.34,3.54-1.02,4.86c-.85,1.66-2.12,2.49-3.81,2.49s-2.96-.83-3.81-2.49Zm3.74-10.63c-.47,0-.88,.1-1.22,.3-.34,.2-.64,.47-.88,.81-.25,.34-.44,.71-.6,1.13s-.27,.84-.36,1.27c-.15,.78-.23,1.44-.23,1.97s.02,1,.05,1.4c.03,.41,.09,.83,.18,1.26s.21,.86,.37,1.27c.16,.41,.36,.78,.61,1.11,.55,.73,1.26,1.1,2.13,1.1,.78,0,1.44-.37,1.98-1.11,.64-.88,1.04-2.09,1.21-3.64,.04-.4,.06-.75,.06-1.04,0-1.26-.2-2.45-.61-3.58-.32-.89-.81-1.53-1.48-1.94-.34-.21-.75-.31-1.22-.31Z"/></g><g><path d="M100.94,427.36l5.63-12.74h-6.68v-1.47h8.97l-6.28,14.21h-1.64Z"/><path d="M111.69,425.06c-.68-1.32-1.02-2.94-1.02-4.86s.34-3.54,1.02-4.86c.85-1.66,2.12-2.49,3.81-2.49s2.96,.83,3.81,2.49c.68,1.32,1.02,2.94,1.02,4.86s-.34,3.54-1.02,4.86c-.85,1.66-2.12,2.49-3.81,2.49s-2.96-.83-3.81-2.49Zm3.74-10.63c-.47,0-.87,.1-1.22,.3-.34,.2-.64,.47-.88,.81-.24,.34-.44,.71-.6,1.13s-.27,.84-.36,1.27c-.15,.78-.23,1.44-.23,1.97s.02,1,.05,1.4c.04,.41,.09,.83,.18,1.26s.21,.86,.37,1.27c.16,.41,.36,.78,.61,1.11,.55,.73,1.26,1.1,2.13,1.1,.78,0,1.44-.37,1.98-1.11,.64-.88,1.04-2.09,1.21-3.64,.04-.4,.06-.75,.06-1.04,0-1.26-.2-2.45-.61-3.58-.32-.89-.81-1.53-1.48-1.94-.34-.21-.75-.31-1.22-.31Z"/></g><g><path d="M101.48,344.4c-.92-.8-1.38-1.84-1.38-3.12,0-.7,.21-1.38,.62-2.05,.41-.66,1-1.21,1.77-1.63-1.13-.94-1.7-1.96-1.7-3.07s.39-1.99,1.17-2.69c.74-.67,1.69-1.01,2.82-1.01s2.08,.34,2.82,1.01c.78,.7,1.17,1.6,1.17,2.7s-.57,2.12-1.7,3.05c.77,.42,1.36,.96,1.77,1.63,.41,.67,.62,1.34,.62,2.02s-.12,1.28-.37,1.81c-.25,.53-.58,.97-1.01,1.34-.89,.78-2,1.17-3.31,1.17s-2.41-.39-3.31-1.17Zm1.16-5.45c-.58,.57-.87,1.27-.87,2.1s.29,1.54,.86,2.14c.57,.6,1.29,.9,2.16,.9s1.59-.3,2.16-.9c.57-.6,.86-1.32,.86-2.14s-.29-1.53-.87-2.1c-.59-.57-1.31-.86-2.15-.86s-1.56,.29-2.15,.86Zm.41-5.98c-.49,.46-.73,1.03-.73,1.7s.25,1.23,.73,1.72,1.06,.71,1.74,.71,1.27-.24,1.74-.71,.73-1.06,.73-1.72-.25-1.24-.73-1.7c-.48-.45-1.06-.67-1.74-.67s-1.27,.22-1.74,.67Z"/><path d="M112.38,343.06c-.68-1.32-1.02-2.94-1.02-4.86s.34-3.54,1.02-4.86c.85-1.66,2.12-2.49,3.81-2.49s2.96,.83,3.81,2.49c.68,1.32,1.02,2.94,1.02,4.86s-.34,3.54-1.02,4.86c-.85,1.66-2.12,2.49-3.81,2.49s-2.96-.83-3.81-2.49Zm3.74-10.63c-.47,0-.88,.1-1.22,.3-.34,.2-.64,.47-.88,.81-.25,.34-.44,.71-.6,1.13s-.27,.84-.36,1.27c-.15,.78-.23,1.44-.23,1.97s.02,1,.05,1.4c.03,.41,.09,.83,.18,1.26s.21,.86,.37,1.27c.16,.41,.36,.78,.61,1.11,.55,.73,1.26,1.1,2.13,1.1,.78,0,1.44-.37,1.98-1.11,.64-.88,1.04-2.09,1.21-3.64,.04-.4,.06-.75,.06-1.04,0-1.26-.2-2.45-.61-3.58-.32-.89-.81-1.53-1.48-1.94-.34-.21-.75-.31-1.22-.31Z"/></g><g><path d="M522.48,353.4c-.92-.8-1.38-1.84-1.38-3.12,0-.7,.21-1.38,.62-2.05,.41-.66,1-1.21,1.77-1.63-1.13-.94-1.7-1.96-1.7-3.07s.39-1.99,1.17-2.69c.74-.67,1.69-1.01,2.82-1.01s2.08,.34,2.82,1.01c.78,.7,1.17,1.6,1.17,2.7s-.57,2.12-1.7,3.05c.77,.42,1.36,.96,1.77,1.63,.41,.67,.62,1.34,.62,2.02s-.12,1.28-.37,1.81c-.25,.53-.58,.97-1.01,1.34-.89,.78-2,1.17-3.31,1.17s-2.41-.39-3.31-1.17Zm1.16-5.45c-.58,.57-.87,1.27-.87,2.1s.29,1.54,.86,2.14c.57,.6,1.29,.9,2.16,.9s1.59-.3,2.16-.9c.57-.6,.86-1.32,.86-2.14s-.29-1.53-.87-2.1c-.59-.57-1.31-.86-2.15-.86s-1.56,.29-2.15,.86Zm.41-5.98c-.49,.46-.73,1.03-.73,1.7s.25,1.23,.73,1.72,1.06,.71,1.74,.71,1.27-.24,1.74-.71,.73-1.06,.73-1.72-.25-1.24-.73-1.7c-.48-.45-1.06-.67-1.74-.67s-1.27,.22-1.74,.67Z"/><path d="M540.02,346.91c.63-.63,.94-1.4,.94-2.31s-.33-1.65-.98-2.29c-.64-.63-1.42-.94-2.34-.94s-1.73,.35-2.38,1.05c-.68,.72-.97,1.53-.89,2.41h-1.49c-.06-1.38,.39-2.54,1.33-3.51,.96-.98,2.13-1.47,3.5-1.47s2.45,.47,3.41,1.4c.95,.91,1.42,2.04,1.42,3.37s-.46,2.41-1.39,3.34l-4.98,4.93h6.51v1.47h-10.06l7.39-7.45Z"/><path d="M546.17,354.22c-.24-.23-.37-.51-.37-.83s.12-.6,.36-.84,.52-.36,.86-.36,.63,.12,.87,.35c.25,.23,.37,.51,.37,.84s-.13,.61-.38,.84c-.25,.23-.54,.35-.86,.35s-.61-.12-.85-.35Z"/><path d="M551.51,354.36l5.63-12.74h-6.68v-1.47h8.97l-6.28,14.21h-1.64Z"/></g><g><path d="M854.48,296.4c-.92-.8-1.38-1.84-1.38-3.12,0-.7,.21-1.38,.62-2.05,.41-.66,1-1.21,1.77-1.63-1.13-.94-1.7-1.96-1.7-3.07s.39-1.99,1.17-2.69c.74-.67,1.69-1.01,2.82-1.01s2.08,.34,2.82,1.01c.78,.7,1.17,1.6,1.17,2.7s-.57,2.12-1.7,3.05c.77,.42,1.36,.96,1.77,1.63,.41,.67,.62,1.34,.62,2.02s-.12,1.28-.37,1.81c-.25,.53-.58,.97-1.01,1.34-.89,.78-2,1.17-3.31,1.17s-2.41-.39-3.31-1.17Zm1.16-5.45c-.58,.57-.87,1.27-.87,2.1s.29,1.54,.86,2.14c.57,.6,1.29,.9,2.16,.9s1.59-.3,2.16-.9c.57-.6,.86-1.32,.86-2.14s-.29-1.53-.87-2.1c-.59-.57-1.31-.86-2.15-.86s-1.56,.29-2.15,.86Zm.41-5.98c-.49,.46-.73,1.03-.73,1.7s.25,1.23,.73,1.72,1.06,.71,1.74,.71,1.27-.24,1.74-.71,.73-1.06,.73-1.72-.25-1.24-.73-1.7c-.48-.45-1.06-.67-1.74-.67s-1.27,.22-1.74,.67Z"/><path d="M864.26,285.75c.25-.57,.59-1.08,1.03-1.51,.92-.92,2.06-1.39,3.4-1.39s2.46,.47,3.4,1.4c.94,.92,1.41,2.05,1.41,3.37,0,1.15-.36,2.15-1.07,3l-5.58,6.74h-1.93l4.37-5.25-.42,.27c-1.43-.06-2.6-.5-3.51-1.32-.98-.89-1.47-2.02-1.47-3.4,0-.7,.13-1.34,.38-1.91Zm5.69,4.86c.41-.17,.76-.41,1.06-.7,.66-.65,1-1.41,1-2.29s-.33-1.68-.99-2.32c-.67-.65-1.45-.98-2.35-.98s-1.7,.31-2.33,.94-.97,1.41-.97,2.29,.32,1.68,.96,2.33c.64,.66,1.42,.99,2.33,.99,.45,0,.89-.09,1.29-.26Z"/><path d="M876,297.22c-.24-.23-.37-.51-.37-.83s.12-.6,.36-.84,.52-.36,.86-.36,.63,.12,.87,.35c.25,.23,.37,.51,.37,.84s-.13,.61-.38,.84c-.25,.23-.54,.35-.86,.35s-.61-.12-.85-.35Z"/><path d="M880.61,285.75c.25-.57,.59-1.08,1.03-1.51,.92-.92,2.06-1.39,3.4-1.39s2.46,.47,3.4,1.4c.94,.92,1.41,2.05,1.41,3.37,0,1.15-.36,2.15-1.07,3l-5.58,6.74h-1.93l4.37-5.25-.42,.27c-1.43-.06-2.6-.5-3.51-1.32-.98-.89-1.47-2.02-1.47-3.4,0-.7,.13-1.34,.38-1.91Zm5.69,4.86c.41-.17,.76-.41,1.06-.7,.66-.65,1-1.41,1-2.29s-.33-1.68-.99-2.32c-.67-.65-1.45-.98-2.35-.98s-1.7,.31-2.33,.94-.97,1.41-.97,2.29,.32,1.68,.96,2.33c.64,.66,1.42,.99,2.33,.99,.45,0,.89-.09,1.29-.26Z"/></g><g><path d="M1493.48,300.4c-.92-.8-1.38-1.84-1.38-3.12,0-.7,.21-1.38,.62-2.05,.41-.66,1-1.21,1.77-1.63-1.13-.94-1.7-1.96-1.7-3.07s.39-1.99,1.17-2.69c.75-.67,1.69-1.01,2.82-1.01s2.08,.34,2.82,1.01c.78,.7,1.17,1.6,1.17,2.7s-.57,2.12-1.7,3.05c.77,.42,1.36,.96,1.77,1.63,.41,.67,.62,1.34,.62,2.02s-.12,1.28-.37,1.81c-.25,.53-.58,.97-1.01,1.34-.89,.78-2,1.17-3.31,1.17s-2.41-.39-3.31-1.17Zm1.16-5.45c-.58,.57-.87,1.27-.87,2.1s.29,1.54,.86,2.14c.57,.6,1.29,.9,2.16,.9s1.59-.3,2.16-.9c.57-.6,.86-1.32,.86-2.14s-.29-1.53-.87-2.1c-.59-.57-1.31-.86-2.15-.86s-1.56,.29-2.15,.86Zm.41-5.98c-.49,.46-.73,1.03-.73,1.7s.25,1.23,.73,1.72c.48,.48,1.06,.71,1.74,.71s1.27-.24,1.74-.71c.49-.49,.74-1.06,.74-1.72s-.25-1.24-.74-1.7c-.48-.45-1.06-.67-1.74-.67s-1.27,.22-1.74,.67Z"/><path d="M1503.26,289.75c.25-.57,.59-1.08,1.03-1.51,.92-.92,2.06-1.39,3.4-1.39s2.46,.47,3.4,1.4c.94,.92,1.41,2.05,1.41,3.37,0,1.15-.36,2.15-1.07,3l-5.58,6.74h-1.93l4.37-5.25-.42,.27c-1.43-.06-2.6-.5-3.51-1.32-.98-.89-1.47-2.02-1.47-3.4,0-.7,.13-1.34,.38-1.91Zm5.69,4.86c.41-.17,.76-.41,1.06-.7,.67-.65,1-1.41,1-2.29s-.33-1.68-.99-2.32c-.67-.65-1.45-.98-2.35-.98s-1.7,.31-2.33,.94c-.64,.64-.97,1.41-.97,2.29s.32,1.68,.96,2.33c.64,.66,1.42,.99,2.33,.99,.46,0,.89-.09,1.29-.26Z"/><path d="M1515,301.22c-.24-.23-.37-.51-.37-.83s.12-.6,.36-.84c.24-.24,.52-.36,.86-.36s.63,.12,.87,.35c.25,.23,.37,.51,.37,.84s-.13,.61-.38,.84c-.25,.23-.54,.35-.86,.35s-.61-.12-.85-.35Z"/><path d="M1527.38,293.91c.63-.63,.94-1.4,.94-2.31s-.33-1.65-.98-2.29c-.64-.63-1.42-.94-2.34-.94s-1.73,.35-2.38,1.05c-.68,.72-.97,1.53-.89,2.41h-1.49c-.06-1.38,.39-2.54,1.33-3.51,.96-.98,2.13-1.47,3.5-1.47s2.45,.47,3.41,1.4c.95,.91,1.42,2.04,1.42,3.37s-.46,2.41-1.39,3.34l-4.98,4.93h6.51v1.47h-10.06l7.39-7.45Z"/></g><g><path d="M100.21,254.75c.25-.57,.59-1.08,1.03-1.51,.92-.92,2.06-1.39,3.4-1.39s2.46,.47,3.4,1.4c.94,.92,1.41,2.05,1.41,3.37,0,1.15-.36,2.15-1.07,3l-5.58,6.74h-1.93l4.37-5.25-.42,.27c-1.43-.06-2.6-.5-3.51-1.32-.98-.89-1.47-2.02-1.47-3.4,0-.7,.13-1.34,.38-1.91Zm5.69,4.86c.41-.17,.76-.41,1.06-.7,.66-.65,1-1.41,1-2.29s-.33-1.68-.99-2.32c-.67-.65-1.45-.98-2.35-.98s-1.7,.31-2.33,.94-.97,1.41-.97,2.29,.32,1.68,.96,2.33c.64,.66,1.42,.99,2.33,.99,.45,0,.89-.09,1.29-.26Z"/><path d="M112.08,264.06c-.68-1.32-1.02-2.94-1.02-4.86s.34-3.54,1.02-4.86c.85-1.66,2.12-2.49,3.81-2.49s2.96,.83,3.81,2.49c.68,1.32,1.02,2.94,1.02,4.86s-.34,3.54-1.02,4.86c-.85,1.66-2.12,2.49-3.81,2.49s-2.96-.83-3.81-2.49Zm3.74-10.63c-.47,0-.88,.1-1.22,.3-.34,.2-.64,.47-.88,.81-.25,.34-.44,.71-.6,1.13s-.27,.84-.36,1.27c-.15,.78-.23,1.44-.23,1.97s.02,1,.05,1.4c.03,.41,.09,.83,.18,1.26s.21,.86,.37,1.27c.16,.41,.36,.78,.61,1.11,.55,.73,1.26,1.1,2.13,1.1,.78,0,1.44-.37,1.98-1.11,.64-.88,1.04-2.09,1.21-3.64,.04-.4,.06-.75,.06-1.04,0-1.26-.2-2.45-.61-3.58-.32-.89-.81-1.53-1.48-1.94-.34-.21-.75-.31-1.22-.31Z"/></g><g><path class="cls-12" d="M959.31,945.52c-1.94-.04-3.88-.02-5.82,0-1.66,.02-1.81,.25-1.03,1.76,1.76,3.4,3.57,6.77,5.33,10.16,3.36,6.48,6.71,12.96,10.05,19.45,.37,.72,.82,1.17,1.67,1.32,2.48,.46,4.96,.94,7.44,1.42l-17.65-34.12Zm9.67,30.69s0,0,0,0c0,0,0,0,0,0,0,0,0,0-.01-.01Z"/><path class="cls-12" d="M1171.52,979.9l-.9-.65c-.35-.25-.74-.5-1.11-.74-1.3-.82-2.65-1.67-3.09-3.22-.29-1-.15-2.04-.03-2.96l.47-3.66c-1.04-.28-2.08-.56-3.11-.84-3.94-1.06-7.86-2.08-11.25-4.56-2.25-1.65-4.8-2.76-7.67-2.85-1.51-.05-3.02-.13-4.53-.12-27.98,.22-55.97-.56-83.95,.61-3.89,.16-7.73,.6-11.49,1.59-2.4,.63-4.8,1.43-6.47,3.37-1.08,1.26-2.31,1.8-3.87,1.98-1.02,.12-2.09,.22-3.09,.43-.32,.07-.59,.14-.85,.2-.13-.04-.26-.09-.39-.14-1.67-.69-3.37-1.36-5.05-2.05-10.89-4.5-21.8-8.96-32.71-13.4,0,0-12.46-4.62-12.46-4.62-5.44-1.21-10.06-1.89-11.13-2.05-2.83-.4-5.67-.59-8.51-.67l17.75,34.31c12.6,2.47,25.17,5.12,37.83,7.25,15.56,2.62,31.23,3.81,47,4.11,8.27,.16,16.47-.82,24.72-.92,5.89-.07,11.78,0,17.67-.02,12.28-.05,24.55,.15,36.83-.56,11.2-.65,22.37-1.64,33.48-3.17,1.48-.2,2.96-.41,4.43-.65-2.83-1.86-5.64-3.9-8.53-6Zm-193.92-31.25c.96,.23,1.92,.47,2.86,.74-.9-.23-1.87-.48-2.86-.74Zm15.43,5.4c.17,.04,.34,.08,.51,.13,.03,.01,.06,.03,.09,.04-.2-.05-.4-.11-.6-.17Zm78.97,7.02c-.06-.03-.12-.05-.18-.07,.06,0,.12,0,.18,0v.07Zm30.59,10.45c-1.55,.04-3.09-1.43-3.06-2.94,.02-1.48,1.44-2.93,2.9-2.95,1.52-.02,2.91,1.29,2.98,2.84,.06,1.39-1.43,3.01-2.81,3.04Zm15.06-.05c-1.58,.08-3-1.28-3.04-2.9-.04-1.5,1.29-2.87,2.84-2.94,1.6-.07,3,1.26,3.05,2.88,.04,1.43-1.36,2.89-2.86,2.96Zm17.96-2.75c-.1,1.51-1.73,2.91-3.24,2.78-1.47-.12-2.77-1.67-2.65-3.17,.11-1.5,1.61-2.8,3.12-2.7,1.46,.1,2.87,1.66,2.77,3.08Zm14.54-1.73c-.29,.78-.92,1-1.67,1.01-.55,0-1.1,0-1.84,0-.83-.18-2.13,.5-2.79-.78-.66-1.27,.35-2.15,.95-3.1,1.13-1.75,1.89-1.84,3.39-.39,.5,.49,.99,.99,1.48,1.49,.49,.5,.74,1.06,.48,1.77Z"/><path class="cls-12" d="M1191.1,976.34c-3-1.56-6.2-2.65-9.45-3.57-4.63-1.31-9.27-2.59-13.91-3.86l-.45,3.54c-.11,.87-.23,1.78,0,2.6,.35,1.21,1.49,1.93,2.7,2.7,.39,.24,.79,.5,1.16,.77l.9,.65c3.16,2.29,6.23,4.52,9.31,6.51,3.19-.57,6.35-1.32,9.4-2.52,1.53-.6,3.35-1.25,3.39-3.22,.04-1.89-1.57-2.82-3.06-3.6Z"/></g><g><path class="cls-12" d="M1704.17,100.55c-1.34-.02-2.67-.02-4.01,0-1.14,.02-1.25,.17-.71,1.21,1.21,2.34,2.46,4.67,3.68,7.01,2.32,4.47,4.63,8.94,6.93,13.42,.25,.49,.57,.8,1.16,.91,1.71,.32,3.42,.65,5.13,.98l-12.17-23.53Zm6.67,21.17s0,0,0,0c0,0,0,0,0,0,0,0,0,0,0,0Z"/><path class="cls-12" d="M1850.54,124.27l-.62-.45c-.24-.17-.51-.34-.77-.51-.9-.57-1.82-1.15-2.13-2.22-.2-.69-.1-1.41-.02-2.04l.32-2.52c-.72-.19-1.43-.39-2.15-.58-2.72-.73-5.42-1.43-7.76-3.15-1.55-1.14-3.31-1.9-5.29-1.97-1.04-.03-2.08-.09-3.12-.08-19.3,.15-38.6-.39-57.9,.42-2.68,.11-5.33,.41-7.92,1.1-1.65,.44-3.31,.98-4.46,2.32-.74,.87-1.59,1.24-2.67,1.36-.7,.08-1.44,.15-2.13,.3-.22,.05-.4,.1-.59,.14-.09-.03-.18-.06-.27-.1-1.16-.48-2.32-.94-3.48-1.42-7.51-3.11-15.03-6.18-22.56-9.24,0,0-8.6-3.19-8.6-3.19-3.75-.83-6.94-1.31-7.67-1.41-1.95-.28-3.91-.41-5.87-.46l12.24,23.67c8.69,1.7,17.36,3.53,26.09,5,10.73,1.8,21.54,2.63,32.42,2.83,5.71,.11,11.36-.57,17.05-.63,4.06-.05,8.13,0,12.19-.01,8.47-.04,16.94,.1,25.4-.39,7.73-.45,15.43-1.13,23.09-2.19,1.02-.14,2.04-.28,3.05-.45-1.95-1.28-3.89-2.69-5.88-4.14Zm-133.75-21.55c.66,.16,1.32,.33,1.98,.51-.62-.16-1.29-.33-1.98-.51Zm10.64,3.72c.12,.03,.24,.06,.35,.09,.02,0,.04,.02,.06,.03-.14-.04-.28-.07-.42-.11Zm54.47,4.84s-.08-.04-.13-.05c.04,0,.08,0,.13,0v.05Zm21.1,7.2c-1.07,.02-2.13-.99-2.11-2.02,.01-1.02,.99-2.02,2-2.03,1.05-.02,2,.89,2.05,1.96,.04,.96-.99,2.08-1.94,2.1Zm10.39-.03c-1.09,.05-2.07-.88-2.09-2-.02-1.03,.89-1.98,1.96-2.03,1.1-.05,2.07,.87,2.11,1.98,.03,.99-.94,1.99-1.97,2.04Zm12.39-1.9c-.07,1.04-1.19,2.01-2.23,1.92-1.01-.08-1.91-1.15-1.83-2.19,.08-1.04,1.11-1.93,2.15-1.86,1.01,.07,1.98,1.14,1.91,2.13Zm10.03-1.19c-.2,.54-.63,.69-1.15,.7-.38,0-.76,0-1.27,0-.57-.12-1.47,.34-1.93-.54-.45-.87,.24-1.49,.66-2.14,.78-1.21,1.3-1.27,2.34-.27,.35,.34,.68,.68,1.02,1.03,.34,.34,.51,.73,.33,1.22Z"/><path class="cls-12" d="M1864.05,121.81c-2.07-1.08-4.28-1.83-6.52-2.46-3.19-.91-6.39-1.79-9.59-2.66l-.31,2.44c-.08,.6-.16,1.23,0,1.79,.24,.84,1.03,1.33,1.86,1.86,.27,.17,.54,.34,.8,.53l.62,.45c2.18,1.58,4.29,3.12,6.42,4.49,2.2-.39,4.38-.91,6.48-1.74,1.06-.42,2.31-.86,2.34-2.22,.03-1.3-1.09-1.95-2.11-2.48Z"/></g><g><path class="cls-11" d="M1546.31,945.52c-1.94-.04-3.88-.02-5.82,0-1.66,.02-1.81,.25-1.03,1.76,1.76,3.4,3.57,6.77,5.33,10.16,3.36,6.48,6.71,12.96,10.05,19.45,.37,.72,.82,1.17,1.67,1.32,2.48,.46,4.96,.94,7.44,1.42l-17.65-34.12Zm9.67,30.69s0,0,0,0c0,0,0,0,0,0,0,0,0,0-.01-.01Z"/><path class="cls-11" d="M1758.52,979.9l-.9-.65c-.35-.25-.74-.5-1.11-.74-1.3-.82-2.65-1.67-3.09-3.22-.29-1-.15-2.04-.03-2.96l.47-3.66c-1.04-.28-2.08-.56-3.11-.84-3.94-1.06-7.86-2.08-11.25-4.56-2.25-1.65-4.8-2.76-7.67-2.85-1.51-.05-3.02-.13-4.53-.12-27.98,.22-55.97-.56-83.95,.61-3.89,.16-7.73,.6-11.49,1.59-2.4,.63-4.8,1.43-6.47,3.37-1.08,1.26-2.31,1.8-3.87,1.98-1.02,.12-2.09,.22-3.09,.43-.32,.07-.59,.14-.85,.2-.13-.04-.26-.09-.39-.14-1.67-.69-3.37-1.36-5.05-2.05-10.89-4.5-21.8-8.96-32.71-13.4,0,0-12.46-4.62-12.46-4.62-5.44-1.21-10.06-1.89-11.13-2.05-2.83-.4-5.67-.59-8.51-.67l17.75,34.31c12.6,2.47,25.17,5.12,37.83,7.25,15.56,2.62,31.23,3.81,47,4.11,8.27,.16,16.47-.82,24.72-.92,5.89-.07,11.78,0,17.67-.02,12.28-.05,24.55,.15,36.83-.56,11.2-.65,22.37-1.64,33.48-3.17,1.48-.2,2.96-.41,4.43-.65-2.83-1.86-5.64-3.9-8.53-6Zm-193.92-31.25c.96,.23,1.92,.47,2.86,.74-.9-.23-1.87-.48-2.86-.74Zm15.43,5.4c.17,.04,.34,.08,.51,.13,.03,.01,.06,.03,.09,.04-.2-.05-.4-.11-.6-.17Zm78.97,7.02c-.06-.03-.12-.05-.18-.07,.06,0,.12,0,.18,0v.07Zm30.59,10.45c-1.55,.04-3.09-1.43-3.06-2.94,.02-1.48,1.44-2.93,2.9-2.95,1.52-.02,2.91,1.29,2.98,2.84,.06,1.39-1.43,3.01-2.81,3.04Zm15.06-.05c-1.58,.08-3-1.28-3.04-2.9-.04-1.5,1.29-2.87,2.84-2.94,1.6-.07,3,1.26,3.05,2.88,.04,1.43-1.36,2.89-2.86,2.96Zm17.96-2.75c-.1,1.51-1.73,2.91-3.24,2.78-1.47-.12-2.77-1.67-2.65-3.17,.11-1.5,1.61-2.8,3.12-2.7,1.46,.1,2.87,1.66,2.77,3.08Zm14.54-1.73c-.29,.78-.92,1-1.67,1.01-.55,0-1.1,0-1.84,0-.83-.18-2.13,.5-2.79-.78-.66-1.27,.35-2.15,.95-3.1,1.13-1.75,1.89-1.84,3.39-.39,.5,.49,.99,.99,1.48,1.49,.49,.5,.74,1.06,.48,1.77Z"/><path class="cls-11" d="M1778.1,976.34c-3-1.56-6.2-2.65-9.45-3.57-4.63-1.31-9.27-2.59-13.91-3.86l-.45,3.54c-.11,.87-.23,1.78,0,2.6,.35,1.21,1.49,1.93,2.7,2.7,.39,.24,.79,.5,1.16,.77l.9,.65c3.16,2.29,6.23,4.52,9.31,6.51,3.19-.57,6.35-1.32,9.4-2.52,1.53-.6,3.35-1.25,3.39-3.22,.04-1.89-1.57-2.82-3.06-3.6Z"/></g><g><path class="cls-11" d="M1709.27,152.32c-1.34-.02-2.67-.02-4.01,0-1.14,.02-1.25,.17-.71,1.21,1.21,2.34,2.46,4.67,3.68,7.01,2.32,4.47,4.63,8.94,6.93,13.42,.25,.49,.57,.8,1.16,.91,1.71,.32,3.42,.65,5.13,.98l-12.17-23.53Zm6.67,21.17s0,0,0,0c0,0,0,0,0,0,0,0,0,0,0,0Z"/><path class="cls-11" d="M1855.64,176.04l-.62-.45c-.24-.17-.51-.34-.77-.51-.9-.57-1.82-1.15-2.13-2.22-.2-.69-.1-1.41-.02-2.04l.32-2.52c-.72-.19-1.43-.39-2.15-.58-2.72-.73-5.42-1.43-7.76-3.15-1.55-1.14-3.31-1.9-5.29-1.97-1.04-.03-2.08-.09-3.12-.08-19.3,.15-38.6-.39-57.9,.42-2.68,.11-5.33,.41-7.92,1.1-1.65,.44-3.31,.98-4.46,2.32-.74,.87-1.59,1.24-2.67,1.36-.7,.08-1.44,.15-2.13,.3-.22,.05-.4,.1-.59,.14-.09-.03-.18-.06-.27-.1-1.16-.48-2.32-.94-3.48-1.42-7.51-3.11-15.03-6.18-22.56-9.24,0,0-8.6-3.19-8.6-3.19-3.75-.83-6.94-1.31-7.67-1.41-1.95-.28-3.91-.41-5.87-.46l12.24,23.67c8.69,1.7,17.36,3.53,26.09,5,10.73,1.8,21.54,2.63,32.42,2.83,5.71,.11,11.36-.57,17.05-.63,4.06-.05,8.13,0,12.19-.01,8.47-.04,16.94,.1,25.4-.39,7.73-.45,15.43-1.13,23.09-2.19,1.02-.14,2.04-.28,3.05-.45-1.95-1.28-3.89-2.69-5.88-4.14Zm-133.75-21.55c.66,.16,1.32,.33,1.98,.51-.62-.16-1.29-.33-1.98-.51Zm10.64,3.72c.12,.03,.24,.06,.35,.09,.02,0,.04,.02,.06,.03-.14-.04-.28-.07-.42-.11Zm54.47,4.84s-.08-.04-.13-.05c.04,0,.08,0,.13,0v.05Zm21.1,7.2c-1.07,.02-2.13-.99-2.11-2.02,.01-1.02,.99-2.02,2-2.03,1.05-.02,2,.89,2.05,1.96,.04,.96-.99,2.08-1.94,2.1Zm10.39-.03c-1.09,.05-2.07-.88-2.09-2-.02-1.03,.89-1.98,1.96-2.03,1.1-.05,2.07,.87,2.11,1.98,.03,.99-.94,1.99-1.97,2.04Zm12.39-1.9c-.07,1.04-1.19,2.01-2.23,1.92-1.01-.08-1.91-1.15-1.83-2.19,.08-1.04,1.11-1.93,2.15-1.86,1.01,.07,1.98,1.14,1.91,2.13Zm10.03-1.19c-.2,.54-.63,.69-1.15,.7-.38,0-.76,0-1.27,0-.57-.12-1.47,.34-1.93-.54-.45-.87,.24-1.49,.66-2.14,.78-1.21,1.3-1.27,2.34-.27,.35,.34,.68,.68,1.02,1.03,.34,.34,.51,.73,.33,1.22Z"/><path class="cls-11" d="M1869.14,173.58c-2.07-1.08-4.28-1.83-6.52-2.46-3.19-.91-6.39-1.79-9.59-2.66l-.31,2.44c-.08,.6-.16,1.23,0,1.79,.24,.84,1.03,1.33,1.86,1.86,.27,.17,.54,.34,.8,.53l.62,.45c2.18,1.58,4.29,3.12,6.42,4.49,2.2-.39,4.38-.91,6.48-1.74,1.06-.42,2.31-.86,2.34-2.22,.03-1.3-1.09-1.95-2.11-2.48Z"/></g><g class="cls-16"><g><line class="cls-5" x1="453" y1="977" x2="453" y2="971"/><line class="cls-1" x1="453" y1="958.94" x2="453" y2="338.03"/><line class="cls-5" x1="453" y1="332" x2="453" y2="326"/></g></g><g class="cls-16"><g><line class="cls-5" x1="143" y1="325" x2="149" y2="325"/><line class="cls-9" x1="160.92" y1="325" x2="441.04" y2="325"/><line class="cls-5" x1="447" y1="325" x2="453" y2="325"/></g></g><g class="cls-16"><g><line class="cls-5" x1="763" y1="978" x2="763" y2="972"/><line class="cls-6" x1="763" y1="960.05" x2="763" y2="273.07"/><line class="cls-5" x1="763" y1="267.1" x2="763" y2="261.1"/></g></g><g class="cls-16"><g><line class="cls-5" x1="143" y1="260" x2="149" y2="260"/><line class="cls-10" x1="160.92" y1="260" x2="751.04" y2="260"/><line class="cls-5" x1="757" y1="260" x2="763" y2="260"/></g></g><g class="cls-16"><g><line class="cls-5" x1="1383" y1="979" x2="1383" y2="973"/><line class="cls-7" x1="1383" y1="961.17" x2="1383" y2="281"/><line class="cls-5" x1="1383" y1="275.09" x2="1383" y2="269.09"/></g></g><g class="cls-16"><g><line class="cls-5" x1="143" y1="268" x2="149" y2="268"/><line class="cls-8" x1="160.92" y1="268" x2="1371.04" y2="268"/><line class="cls-5" x1="1377" y1="268" x2="1383" y2="268"/></g></g><g><path class="cls-14" d="M299.31,292.52c-1.94-.04-3.88-.02-5.82,0-1.66,.02-1.81,.25-1.03,1.76,1.76,3.4,3.57,6.77,5.33,10.16,3.36,6.48,6.71,12.96,10.05,19.45,.37,.72,.82,1.17,1.67,1.32,2.48,.46,4.96,.94,7.44,1.42l-17.65-34.12Zm9.67,30.69s0,0,0,0c0,0,0,0,0,0,0,0,0,0-.01-.01Z"/><path class="cls-14" d="M511.52,326.9l-.9-.65c-.35-.25-.74-.5-1.11-.74-1.3-.82-2.65-1.67-3.09-3.22-.29-1-.15-2.04-.03-2.96l.47-3.66c-1.04-.28-2.08-.56-3.11-.84-3.94-1.06-7.86-2.08-11.25-4.56-2.25-1.65-4.8-2.76-7.67-2.85-1.51-.05-3.02-.13-4.53-.12-27.98,.22-55.97-.56-83.95,.61-3.89,.16-7.73,.6-11.49,1.59-2.4,.63-4.8,1.43-6.47,3.37-1.08,1.26-2.31,1.8-3.87,1.98-1.02,.12-2.09,.22-3.09,.43-.32,.07-.59,.14-.85,.2-.13-.04-.26-.09-.39-.14-1.67-.69-3.37-1.36-5.05-2.05-10.89-4.5-21.8-8.96-32.71-13.4,0,0-12.46-4.62-12.46-4.62-5.44-1.21-10.06-1.89-11.13-2.05-2.83-.4-5.67-.59-8.51-.67l17.75,34.31c12.6,2.47,25.17,5.12,37.83,7.25,15.56,2.62,31.23,3.81,47,4.11,8.27,.16,16.47-.82,24.72-.92,5.89-.07,11.78,0,17.67-.02,12.28-.05,24.55,.15,36.83-.56,11.2-.65,22.37-1.64,33.48-3.17,1.48-.2,2.96-.41,4.43-.65-2.83-1.86-5.64-3.9-8.53-6Zm-193.92-31.25c.96,.23,1.92,.47,2.86,.74-.9-.23-1.87-.48-2.86-.74Zm15.43,5.4c.17,.04,.34,.08,.51,.13,.03,.01,.06,.03,.09,.04-.2-.05-.4-.11-.6-.17Zm78.97,7.02c-.06-.03-.12-.05-.18-.07,.06,0,.12,0,.18,0v.07Zm30.59,10.45c-1.55,.04-3.09-1.43-3.06-2.94,.02-1.48,1.44-2.93,2.9-2.95,1.52-.02,2.91,1.29,2.98,2.84,.06,1.39-1.43,3.01-2.81,3.04Zm15.06-.05c-1.58,.08-3-1.28-3.04-2.9-.04-1.5,1.29-2.87,2.84-2.94,1.6-.07,3,1.26,3.05,2.88,.04,1.43-1.36,2.89-2.86,2.96Zm17.96-2.75c-.1,1.51-1.73,2.91-3.24,2.78-1.47-.12-2.77-1.67-2.65-3.17,.11-1.5,1.61-2.8,3.12-2.7,1.46,.1,2.87,1.66,2.77,3.08Zm14.54-1.73c-.29,.78-.92,1-1.67,1.01-.55,0-1.1,0-1.84,0-.83-.18-2.13,.5-2.79-.78-.66-1.27,.35-2.15,.95-3.1,1.13-1.75,1.89-1.84,3.39-.39,.5,.49,.99,.99,1.48,1.49,.49,.5,.74,1.06,.48,1.77Z"/><path class="cls-14" d="M531.1,323.34c-3-1.56-6.2-2.65-9.45-3.57-4.63-1.31-9.27-2.59-13.91-3.86l-.45,3.54c-.11,.87-.23,1.78,0,2.6,.35,1.21,1.49,1.93,2.7,2.7,.39,.24,.79,.5,1.16,.77l.9,.65c3.16,2.29,6.23,4.52,9.31,6.51,3.19-.57,6.35-1.32,9.4-2.52,1.53-.6,3.35-1.25,3.39-3.22,.04-1.89-1.57-2.82-3.06-3.6Z"/></g><g><path class="cls-14" d="M631.31,237.52c-1.94-.04-3.88-.02-5.82,0-1.66,.02-1.81,.25-1.03,1.76,1.76,3.4,3.57,6.77,5.33,10.16,3.36,6.48,6.71,12.96,10.05,19.45,.37,.72,.82,1.17,1.67,1.32,2.48,.46,4.96,.94,7.44,1.42l-17.65-34.12Zm9.67,30.69s0,0,0,0c0,0,0,0,0,0,0,0,0,0-.01-.01Z"/><path class="cls-14" d="M843.52,271.9l-.9-.65c-.35-.25-.74-.5-1.11-.74-1.3-.82-2.65-1.67-3.09-3.22-.29-1-.15-2.04-.03-2.96l.47-3.66c-1.04-.28-2.08-.56-3.11-.84-3.94-1.06-7.86-2.08-11.25-4.56-2.25-1.65-4.8-2.76-7.67-2.85-1.51-.05-3.02-.13-4.53-.12-27.98,.22-55.97-.56-83.95,.61-3.89,.16-7.73,.6-11.49,1.59-2.4,.63-4.8,1.43-6.47,3.37-1.08,1.26-2.31,1.8-3.87,1.98-1.02,.12-2.09,.22-3.09,.43-.32,.07-.59,.14-.85,.2-.13-.04-.26-.09-.39-.14-1.67-.69-3.37-1.36-5.05-2.05-10.89-4.5-21.8-8.96-32.71-13.4,0,0-12.46-4.62-12.46-4.62-5.44-1.21-10.06-1.89-11.13-2.05-2.83-.4-5.67-.59-8.51-.67l17.75,34.31c12.6,2.47,25.17,5.12,37.83,7.25,15.56,2.62,31.23,3.81,47,4.11,8.27,.16,16.47-.82,24.72-.92,5.89-.07,11.78,0,17.67-.02,12.28-.05,24.55,.15,36.83-.56,11.2-.65,22.37-1.64,33.48-3.17,1.48-.2,2.96-.41,4.43-.65-2.83-1.86-5.64-3.9-8.53-6Zm-193.92-31.25c.96,.23,1.92,.47,2.86,.74-.9-.23-1.87-.48-2.86-.74Zm15.43,5.4c.17,.04,.34,.08,.51,.13,.03,.01,.06,.03,.09,.04-.2-.05-.4-.11-.6-.17Zm78.97,7.02c-.06-.03-.12-.05-.18-.07,.06,0,.12,0,.18,0v.07Zm30.59,10.45c-1.55,.04-3.09-1.43-3.06-2.94,.02-1.48,1.44-2.93,2.9-2.95,1.52-.02,2.91,1.29,2.98,2.84,.06,1.39-1.43,3.01-2.81,3.04Zm15.06-.05c-1.58,.08-3-1.28-3.04-2.9-.04-1.5,1.29-2.87,2.84-2.94,1.6-.07,3,1.26,3.05,2.88,.04,1.43-1.36,2.89-2.86,2.96Zm17.96-2.75c-.1,1.51-1.73,2.91-3.24,2.78-1.47-.12-2.77-1.67-2.65-3.17,.11-1.5,1.61-2.8,3.12-2.7,1.46,.1,2.87,1.66,2.77,3.08Zm14.54-1.73c-.29,.78-.92,1-1.67,1.01-.55,0-1.1,0-1.84,0-.83-.18-2.13,.5-2.79-.78-.66-1.27,.35-2.15,.95-3.1,1.13-1.75,1.89-1.84,3.39-.39,.5,.49,.99,.99,1.48,1.49,.49,.5,.74,1.06,.48,1.77Z"/><path class="cls-14" d="M863.1,268.34c-3-1.56-6.2-2.65-9.45-3.57-4.63-1.31-9.27-2.59-13.91-3.86l-.45,3.54c-.11,.87-.23,1.78,0,2.6,.35,1.21,1.49,1.93,2.7,2.7,.39,.24,.79,.5,1.16,.77l.9,.65c3.16,2.29,6.23,4.52,9.31,6.51,3.19-.57,6.35-1.32,9.4-2.52,1.53-.6,3.35-1.25,3.39-3.22,.04-1.89-1.57-2.82-3.06-3.6Z"/></g><g><path class="cls-14" d="M1269.31,239.52c-1.94-.04-3.88-.02-5.82,0-1.66,.02-1.81,.25-1.03,1.76,1.76,3.4,3.57,6.77,5.33,10.16,3.36,6.48,6.71,12.96,10.05,19.45,.37,.72,.82,1.17,1.67,1.32,2.48,.46,4.96,.94,7.44,1.42l-17.65-34.12Zm9.67,30.69s0,0,0,0c0,0,0,0,0,0,0,0,0,0-.01-.01Z"/><path class="cls-14" d="M1481.52,273.9l-.9-.65c-.35-.25-.74-.5-1.11-.74-1.3-.82-2.65-1.67-3.09-3.22-.29-1-.15-2.04-.03-2.96l.47-3.66c-1.04-.28-2.08-.56-3.11-.84-3.94-1.06-7.86-2.08-11.25-4.56-2.25-1.65-4.8-2.76-7.67-2.85-1.51-.05-3.02-.13-4.53-.12-27.98,.22-55.97-.56-83.95,.61-3.89,.16-7.73,.6-11.49,1.59-2.4,.63-4.8,1.43-6.47,3.37-1.08,1.26-2.31,1.8-3.87,1.98-1.02,.12-2.09,.22-3.09,.43-.32,.07-.59,.14-.85,.2-.13-.04-.26-.09-.39-.14-1.67-.69-3.37-1.36-5.05-2.05-10.89-4.5-21.8-8.96-32.71-13.4,0,0-12.46-4.62-12.46-4.62-5.44-1.21-10.06-1.89-11.13-2.05-2.83-.4-5.67-.59-8.51-.67l17.75,34.31c12.6,2.47,25.17,5.12,37.83,7.25,15.56,2.62,31.23,3.81,47,4.11,8.27,.16,16.47-.82,24.72-.92,5.89-.07,11.78,0,17.67-.02,12.28-.05,24.55,.15,36.83-.56,11.2-.65,22.37-1.64,33.48-3.17,1.48-.2,2.96-.41,4.43-.65-2.83-1.86-5.64-3.9-8.53-6Zm-193.92-31.25c.96,.23,1.92,.47,2.86,.74-.9-.23-1.87-.48-2.86-.74Zm15.43,5.4c.17,.04,.34,.08,.51,.13,.03,.01,.06,.03,.09,.04-.2-.05-.4-.11-.6-.17Zm78.97,7.02c-.06-.03-.12-.05-.18-.07,.06,0,.12,0,.18,0v.07Zm30.59,10.45c-1.55,.04-3.09-1.43-3.06-2.94,.02-1.48,1.44-2.93,2.9-2.95,1.52-.02,2.91,1.29,2.98,2.84,.06,1.39-1.43,3.01-2.81,3.04Zm15.06-.05c-1.58,.08-3-1.28-3.04-2.9-.04-1.5,1.29-2.87,2.84-2.94,1.6-.07,3,1.26,3.05,2.88,.04,1.43-1.36,2.89-2.86,2.96Zm17.96-2.75c-.1,1.51-1.73,2.91-3.24,2.78-1.47-.12-2.77-1.67-2.65-3.17,.11-1.5,1.61-2.8,3.12-2.7,1.46,.1,2.87,1.66,2.77,3.08Zm14.54-1.73c-.29,.78-.92,1-1.67,1.01-.55,0-1.1,0-1.84,0-.83-.18-2.13,.5-2.79-.78-.66-1.27,.35-2.15,.95-3.1,1.13-1.75,1.89-1.84,3.39-.39,.5,.49,.99,.99,1.48,1.49,.49,.5,.74,1.06,.48,1.77Z"/><path class="cls-14" d="M1501.1,270.34c-3-1.56-6.2-2.65-9.45-3.57-4.63-1.31-9.27-2.59-13.91-3.86l-.45,3.54c-.11,.87-.23,1.78,0,2.6,.35,1.21,1.49,1.93,2.7,2.7,.39,.24,.79,.5,1.16,.77l.9,.65c3.16,2.29,6.23,4.52,9.31,6.51,3.19-.57,6.35-1.32,9.4-2.52,1.53-.6,3.35-1.25,3.39-3.22,.04-1.89-1.57-2.82-3.06-3.6Z"/></g><g><path class="cls-14" d="M1700.27,49.32c-1.34-.02-2.67-.02-4.01,0-1.14,.02-1.25,.17-.71,1.21,1.21,2.34,2.46,4.67,3.68,7.01,2.32,4.47,4.63,8.94,6.93,13.42,.25,.49,.57,.8,1.16,.91,1.71,.32,3.42,.65,5.13,.98l-12.17-23.53Zm6.67,21.17s0,0,0,0c0,0,0,0,0,0,0,0,0,0,0,0Z"/><path class="cls-14" d="M1846.64,73.04l-.62-.45c-.24-.17-.51-.34-.77-.51-.9-.57-1.82-1.15-2.13-2.22-.2-.69-.1-1.41-.02-2.04l.32-2.52c-.72-.19-1.43-.39-2.15-.58-2.72-.73-5.42-1.43-7.76-3.15-1.55-1.14-3.31-1.9-5.29-1.97-1.04-.03-2.08-.09-3.12-.08-19.3,.15-38.6-.39-57.9,.42-2.68,.11-5.33,.41-7.92,1.1-1.65,.44-3.31,.98-4.46,2.32-.74,.87-1.59,1.24-2.67,1.36-.7,.08-1.44,.15-2.13,.3-.22,.05-.4,.1-.59,.14-.09-.03-.18-.06-.27-.1-1.16-.48-2.32-.94-3.48-1.42-7.51-3.11-15.03-6.18-22.56-9.24,0,0-8.6-3.19-8.6-3.19-3.75-.83-6.94-1.31-7.67-1.41-1.95-.28-3.91-.41-5.87-.46l12.24,23.67c8.69,1.7,17.36,3.53,26.09,5,10.73,1.8,21.54,2.63,32.42,2.83,5.71,.11,11.36-.57,17.05-.63,4.06-.05,8.13,0,12.19-.01,8.47-.04,16.94,.1,25.4-.39,7.73-.45,15.43-1.13,23.09-2.19,1.02-.14,2.04-.28,3.05-.45-1.95-1.28-3.89-2.69-5.88-4.14Zm-133.75-21.55c.66,.16,1.32,.33,1.98,.51-.62-.16-1.29-.33-1.98-.51Zm10.64,3.72c.12,.03,.24,.06,.35,.09,.02,0,.04,.02,.06,.03-.14-.04-.28-.07-.42-.11Zm54.47,4.84s-.08-.04-.13-.05c.04,0,.08,0,.13,0v.05Zm21.1,7.2c-1.07,.02-2.13-.99-2.11-2.02,.01-1.02,.99-2.02,2-2.03,1.05-.02,2,.89,2.05,1.96,.04,.96-.99,2.08-1.94,2.1Zm10.39-.03c-1.09,.05-2.07-.88-2.09-2-.02-1.03,.89-1.98,1.96-2.03,1.1-.05,2.07,.87,2.11,1.98,.03,.99-.94,1.99-1.97,2.04Zm12.39-1.9c-.07,1.04-1.19,2.01-2.23,1.92-1.01-.08-1.91-1.15-1.83-2.19,.08-1.04,1.11-1.93,2.15-1.86,1.01,.07,1.98,1.14,1.91,2.13Zm10.03-1.19c-.2,.54-.63,.69-1.15,.7-.38,0-.76,0-1.27,0-.57-.12-1.47,.34-1.93-.54-.45-.87,.24-1.49,.66-2.14,.78-1.21,1.3-1.27,2.34-.27,.35,.34,.68,.68,1.02,1.03,.34,.34,.51,.73,.33,1.22Z"/><path class="cls-14" d="M1860.14,70.58c-2.07-1.08-4.28-1.83-6.52-2.46-3.19-.91-6.39-1.79-9.59-2.66l-.31,2.44c-.08,.6-.16,1.23,0,1.79,.24,.84,1.03,1.33,1.86,1.86,.27,.17,.54,.34,.8,.53l.62,.45c2.18,1.58,4.29,3.12,6.42,4.49,2.2-.39,4.38-.91,6.48-1.74,1.06-.42,2.31-.86,2.34-2.22,.03-1.3-1.09-1.95-2.11-2.48Z"/></g><g><path d="M503.97,112.13l-2.69-7.53h-14.24l-2.69,7.53h-8.85l15.18-37.4h6.98l15.18,37.4h-8.85Zm-9.84-27.61l-4.73,13.31h9.46l-4.73-13.31Z"/><path d="M516.4,112.13v-41.24h8.25v41.24h-8.25Z"/><path d="M541.65,112.13h-8.19v-17.87h-4.4v-6.38h4.4v-9.24h8.19v9.24h4.4v6.38h-4.4v17.87Z"/><path d="M554.85,74.74c2.64,0,4.84,2.14,4.84,4.84s-2.2,4.84-4.84,4.84-4.84-2.2-4.84-4.84,2.14-4.84,4.84-4.84Zm-4.12,37.4v-24.25h8.25v24.25h-8.25Z"/><path d="M576.24,112.13h-8.19v-17.87h-4.4v-6.38h4.4v-9.24h8.19v9.24h4.4v6.38h-4.4v17.87Z"/><path d="M584.49,87.88h8.25v13.8c0,2.8,1.1,4.4,3.68,4.4s4.62-2.8,4.62-6.05v-12.15h8.25v24.25h-8.25v-2.97c-1.65,2.09-4.23,3.52-7.42,3.52-6.49,0-9.13-4.45-9.13-11v-13.8Z"/><path d="M643.12,112.13h-8.25v-2.91c-1.65,2.47-5.22,3.46-8.3,3.46-6.87,0-12.04-5.94-12.04-12.65s5.17-12.7,12.04-12.7c3.08,0,6.16,.88,8.3,3.52v-19.96h8.25v41.24Zm-14.02-18.15c-3.3,0-5.77,2.86-5.77,6.05s2.47,6.05,5.77,6.05,5.77-2.86,5.77-6.05-2.47-6.05-5.77-6.05Z"/><path d="M690.69,112.13h-8.25v-2.91c-1.65,2.47-5.22,3.46-8.3,3.46-6.87,0-12.04-5.94-12.04-12.65s5.17-12.7,12.04-12.7c3.08,0,6.16,.88,8.3,3.52v-2.91h8.25v24.2Zm-14.02-18.15c-3.3,0-5.77,2.86-5.77,6.05s2.47,6.05,5.77,6.05,5.77-2.86,5.77-6.05-2.47-6.05-5.77-6.05Z"/><path d="M697.29,112.13v-41.24h8.25v41.24h-8.25Z"/><path d="M719.57,100.09c0,2.8,1.1,6.32,4.95,6.32,2.53,0,4.51-1.1,4.78-3.3h8.03c-.83,5.39-5.72,9.57-13.09,9.57-8.41,0-13.47-5.72-13.47-12.65s5.39-12.7,13.47-12.7,12.87,4.67,13.25,10.28h-8.19c-.11-2.36-1.92-3.85-4.78-3.85-3.74,0-4.95,3.57-4.95,6.32Z"/><path d="M769.72,112.13h-8.25v-2.91c-1.65,2.47-5.22,3.46-8.3,3.46-6.87,0-12.04-5.94-12.04-12.65s5.17-12.7,12.04-12.7c3.08,0,6.16,.88,8.3,3.52v-2.91h8.25v24.2Zm-14.02-18.15c-3.3,0-5.77,2.86-5.77,6.05s2.47,6.05,5.77,6.05,5.77-2.86,5.77-6.05-2.47-6.05-5.77-6.05Z"/><path d="M801.13,112.13h-8.25v-13.75c0-2.86-1.1-4.4-3.68-4.4s-4.62,2.75-4.62,6.05v12.1h-8.25v-24.25h8.25v2.97c1.65-2.09,4.23-3.52,7.42-3.52,6.49,0,9.13,4.45,9.13,11.05v13.75Z"/><path d="M829.4,112.13h-25.52l12.76-17.98h-11.66v-6.27h24.31l-11.66,17.71h11.77v6.54Z"/><path d="M860.75,112.13h-8.25v-2.91c-1.65,2.47-5.22,3.46-8.3,3.46-6.87,0-12.04-5.94-12.04-12.65s5.17-12.7,12.04-12.7c3.08,0,6.16,.88,8.3,3.52v-2.91h8.25v24.2Zm-14.02-18.15c-3.3,0-5.77,2.86-5.77,6.05s2.47,6.05,5.77,6.05,5.77-2.86,5.77-6.05-2.47-6.05-5.77-6.05Z"/><path d="M894.57,112.13h-8.25v-2.91c-1.65,2.47-5.22,3.46-8.3,3.46-6.87,0-12.04-5.94-12.04-12.65s5.17-12.7,12.04-12.7c3.08,0,6.16,.88,8.3,3.52v-19.96h8.25v41.24Zm-14.02-18.15c-3.3,0-5.77,2.86-5.77,6.05s2.47,6.05,5.77,6.05,5.77-2.86,5.77-6.05-2.47-6.05-5.77-6.05Z"/><path d="M928.4,112.13h-8.25v-2.91c-1.65,2.47-5.22,3.46-8.3,3.46-6.87,0-12.04-5.94-12.04-12.65s5.17-12.7,12.04-12.7c3.08,0,6.16,.88,8.3,3.52v-2.91h8.25v24.2Zm-14.02-18.15c-3.3,0-5.77,2.86-5.77,6.05s2.47,6.05,5.77,6.05,5.77-2.86,5.77-6.05-2.47-6.05-5.77-6.05Z"/><path d="M948.75,125.88v-38h8.25v2.97c2.14-2.64,5.17-3.52,8.3-3.52,6.87,0,12.04,5.99,12.04,12.7s-5.17,12.65-12.04,12.65c-3.13,0-6.65-.99-8.3-3.46v16.66h-8.25Zm14.02-19.8c3.3,0,5.77-2.86,5.77-6.05s-2.48-6.05-5.77-6.05-5.77,2.86-5.77,6.05,2.47,6.05,5.77,6.05Z"/><path d="M1008.86,100.03c0,7.75-6.1,12.59-13.8,12.59s-13.86-4.84-13.86-12.59,6.27-12.65,13.86-12.65,13.8,5.06,13.8,12.65Zm-8.19,.06c0-3.02-1.32-6.27-5.61-6.27s-5.66,3.24-5.66,6.27,1.21,6.32,5.66,6.32,5.61-3.24,5.61-6.32Z"/><path d="M1022.34,100.03v12.1h-8.25v-24.25h8.25v2.97c1.27-1.81,3.35-3.52,6.38-3.52,.71,0,1.81,.22,2.47,.55v7.48h-.11c-.83-.99-2.03-1.37-3.3-1.37-3.08,0-5.44,3.13-5.44,6.05Z"/><path d="M1063.92,112.13h-9.73l-9.24-24.25h8.3l5.77,17.32,5.77-17.32h8.36l-9.24,24.25Z"/><path d="M1075.36,87.88h8.25v13.8c0,2.8,1.1,4.4,3.68,4.4s4.62-2.8,4.62-6.05v-12.15h8.25v24.25h-8.25v-2.97c-1.65,2.09-4.23,3.52-7.42,3.52-6.49,0-9.13-4.45-9.13-11v-13.8Z"/><path d="M1132.94,101.02h-18.81c0,2.8,1.98,5.77,5.22,5.77,2.92,0,4.73-1.92,4.78-3.68h8.41c-1.43,6.38-6.6,9.57-13.03,9.57-8.36,0-14.13-4.95-14.13-12.65s5.99-12.7,14.13-12.7c7.37,0,13.47,4.4,13.47,12.15,0,.5-.06,1.04-.06,1.54Zm-7.86-3.9s-.39-4.51-5.39-4.51-5.44,4.51-5.44,4.51h10.83Z"/><path d="M1138.22,112.13v-41.24h8.25v41.24h-8.25Z"/><path d="M1179.36,100.03c0,7.75-6.1,12.59-13.8,12.59s-13.86-4.84-13.86-12.59,6.27-12.65,13.86-12.65,13.8,5.06,13.8,12.65Zm-8.19,.06c0-3.02-1.32-6.27-5.61-6.27s-5.66,3.24-5.66,6.27,1.21,6.32,5.66,6.32,5.61-3.24,5.61-6.32Z"/><path d="M1198.94,95.25c-.28-2.2-2.31-2.8-3.91-2.8s-3.3,.83-3.3,2.25c0,3.41,15.67-.06,15.67,10.17,0,5.72-4.89,7.81-11.93,7.81s-12.65-2.69-13.09-9.57h8.19c0,3.63,3.25,3.85,5.06,3.85s3.46-.71,3.46-2.03c0-5.11-15.67-1.1-15.67-9.9,0-4.95,3.79-7.7,11.82-7.7,6.38,0,11.05,2.36,11.77,7.92h-8.08Z"/><path d="M1245.3,112.13h-7.09l-15.12-37.4h8.91l7.7,21.01,2.04,5.88,2.03-5.88,7.75-21.01h8.91l-15.12,37.4Z"/><path d="M1285.18,101.9c0-7.26-21.61-2.58-21.61-16.39,0-7.7,7.15-11.33,13.97-11.33,7.7,0,14.63,3.41,14.9,11.93h-7.97c-.44-3.9-2.7-5.17-6.82-5.17-2.31,0-5.55,1.1-5.55,3.9,0,6.65,21.61,1.87,21.61,16.11,0,8.8-7.86,12.04-15.51,12.04-8.25,0-15.78-4.07-15.84-13.2h8.36c.22,4.45,3.74,6.49,7.81,6.49,2.58,0,6.65-1.04,6.65-4.4Z"/><path d="M1319.83,101.9c0-7.26-21.61-2.58-21.61-16.39,0-7.7,7.15-11.33,13.97-11.33,7.7,0,14.63,3.41,14.9,11.93h-7.97c-.44-3.9-2.7-5.17-6.82-5.17-2.31,0-5.55,1.1-5.55,3.9,0,6.65,21.61,1.87,21.61,16.11,0,8.8-7.86,12.04-15.51,12.04-8.25,0-15.78-4.07-15.84-13.2h8.36c.22,4.45,3.74,6.49,7.81,6.49,2.58,0,6.65-1.04,6.65-4.4Z"/><path d="M1377.14,74.74v22.82c0,9.95-5.72,15.12-15.45,15.12s-15.45-5.17-15.45-15.12v-22.82h8.25v21.61c0,5.17,1.59,8.08,7.2,8.08s7.2-2.91,7.2-8.08v-21.61h8.25Z"/><path d="M1407.72,112.13h-8.25v-13.75c0-2.86-1.1-4.4-3.68-4.4s-4.62,2.75-4.62,6.05v12.1h-8.25v-24.25h8.25v2.97c1.65-2.09,4.23-3.52,7.42-3.52,6.49,0,9.13,4.45,9.13,11.05v13.75Z"/><path d="M1417.9,74.74c2.64,0,4.84,2.14,4.84,4.84s-2.2,4.84-4.84,4.84-4.84-2.2-4.84-4.84,2.14-4.84,4.84-4.84Zm-4.12,37.4v-24.25h8.25v24.25h-8.25Z"/><path d="M1439.29,112.13h-8.19v-17.87h-4.4v-6.38h4.4v-9.24h8.19v9.24h4.4v6.38h-4.4v17.87Z"/><path d="M1449.36,125.88l5.5-13.75h-1.38l-9.24-24.25h8.3l5.77,17.32,5.77-17.32h8.36l-9.24,24.25-5.28,13.75h-8.58Z"/></g><line class="cls-4" x1="-31" y1="740" x2="2069" y2="740"/><g class="cls-15"><line class="cls-3" x1="-13.07" y1="881" x2="2057.03" y2="881"/></g><path class="cls-13" d="M659.6,886.88c-4.65-.5-9.21-1-13.77-1.49-3.77-.41-7.53-.82-11.3-1.21-.88-.09-1.48-.49-1.91-1.27-3.31-6.08-6.64-12.16-9.97-18.23-.1-.18-.2-.35-.27-.54-.22-.56-.07-.92,.58-.91,1.78,.01,3.56,.02,5.34,.09,1,.04,1.75,.75,2.47,1.33,3.58,2.83,7.21,5.62,10.25,9.06,.69,.78,1.45,1.11,2.54,1.12,4.77,.02,9.53,.15,14.3,.23,.24,0,.5,.11,.81-.12-.8-1.01-1.59-2.02-2.39-3.02-1.79-2.25-3.58-4.49-5.36-6.74-.22-.28-.56-.54-.36-.98,.22-.48,.65-.39,1.05-.39,1.32,.01,2.64,.09,3.96,.04,1.64-.05,3.07,.42,4.51,1.19,6.32,3.38,12.63,6.78,18.87,10.32,.5,.28,1.01,.38,1.57,.39,6.69,.1,13.39,.06,20.07,.35,5.69,.25,11.14,1.6,15.93,4.92,.78,.54,1.54,1.12,2.14,1.86,.88,1.08,.81,2.05-.29,2.91-1.5,1.16-3.21,1.88-5.07,2.28-2.57,.55-5.18,.66-7.8,.61-8.41-.15-16.83-.27-25.24-.41-.62-.01-1.18,.13-1.73,.43-6.58,3.54-13.32,6.78-20,10.13-.78,.39-1.63,.55-2.51,.54-1.64-.02-3.27-.05-4.91-.09-.39,0-.85,.1-1.07-.37-.22-.47,.15-.76,.4-1.05,2.86-3.38,5.72-6.75,8.58-10.12,.2-.24,.44-.45,.57-.86Z"/><g><path d="M1613.27,74.73v-14.28h8.48v1.36h-7.01v5.08h6.8v1.39h-6.8v5.08h7.01v1.36h-8.48Z"/><path d="M1628.04,71.14l-2.31,3.59h-1.87l3.23-4.64-3.23-4.6h1.87l2.31,3.55,2.31-3.55h1.87l-3.23,4.62,3.23,4.62h-1.87l-2.31-3.59Z"/><path d="M1636.08,62.96c0,.26-.09,.48-.27,.66-.18,.18-.4,.27-.66,.27s-.48-.09-.66-.27-.27-.4-.27-.66,.09-.48,.27-.66,.4-.27,.66-.27,.48,.09,.66,.27c.18,.18,.27,.4,.27,.66Zm-1.66,11.77v-9.24h1.47v9.24h-1.47Z"/><path d="M1637.97,65.49h2.31v-3.59h1.47v3.59h2.29v1.36h-2.29v7.87h-1.47v-7.87h-2.31v-1.36Z"/><path d="M1653.64,73.47c-.95,.94-2.09,1.41-3.41,1.41s-2.46-.47-3.41-1.41c-.95-.93-1.42-2.06-1.42-3.4s.47-2.47,1.42-3.41c.95-.95,2.08-1.42,3.41-1.42s2.47,.47,3.41,1.42c.94,.94,1.42,2.08,1.42,3.41s-.47,2.47-1.42,3.4Zm-1.04-5.77c-.66-.66-1.45-.99-2.37-.99s-1.71,.33-2.37,.99-.99,1.45-.99,2.37,.33,1.69,.99,2.35,1.45,.99,2.37,.99,1.71-.33,2.37-.99,.99-1.44,.99-2.35-.33-1.71-.99-2.37Z"/><path d="M1660.35,73.79c1.34,0,2.02-.5,2.02-1.51,0-.59-.48-1.04-1.44-1.35-.41-.13-.84-.26-1.31-.37-.47-.11-.91-.26-1.32-.45-.48-.22-.83-.5-1.07-.84s-.36-.74-.36-1.19c0-.92,.32-1.61,.97-2.08,.65-.47,1.42-.71,2.31-.71s1.63,.18,2.23,.55c.59,.36,.98,1.01,1.18,1.95h-1.58c-.16-.52-.39-.86-.72-1.03-.32-.17-.71-.25-1.16-.25s-.85,.1-1.18,.3c-.34,.2-.5,.51-.5,.93s.14,.72,.42,.91c.27,.19,.61,.35,1.02,.48,.41,.13,.84,.24,1.31,.35,.47,.11,.91,.26,1.32,.45,.95,.45,1.43,1.18,1.43,2.17s-.36,1.73-1.07,2.2c-.36,.24-.75,.42-1.19,.53-.43,.12-.9,.18-1.4,.18-2.14,0-3.37-.95-3.69-2.86h1.55c.16,.6,.42,1.02,.79,1.27,.37,.25,.85,.37,1.43,.37Z"/><path d="M1673.63,73.47c-.95,.94-2.09,1.41-3.41,1.41s-2.46-.47-3.41-1.41c-.95-.93-1.42-2.06-1.42-3.4s.47-2.47,1.42-3.41c.94-.95,2.08-1.42,3.41-1.42s2.47,.47,3.41,1.42c.95,.94,1.42,2.08,1.42,3.41s-.47,2.47-1.42,3.4Zm-1.04-5.77c-.66-.66-1.45-.99-2.37-.99s-1.71,.33-2.37,.99c-.66,.66-.99,1.45-.99,2.37s.33,1.69,.99,2.35c.66,.66,1.45,.99,2.37,.99s1.71-.33,2.37-.99c.66-.66,.99-1.44,.99-2.35s-.33-1.71-.99-2.37Z"/><path d="M1601.74,125.13l-1.53-3.88h-6.27l-1.54,3.88h-1.6l6.28-15.26,6.26,15.26h-1.6Zm-2.07-5.25l-2.59-6.57-2.6,6.57h5.19Z"/><path d="M1605.13,125.13v-15.75h1.47v8.09c.08-.11,.17-.21,.26-.32,.87-.98,1.95-1.47,3.22-1.47s2.35,.49,3.22,1.47c.85,.95,1.27,2.07,1.27,3.36s-.42,2.41-1.27,3.36c-.87,.98-1.95,1.47-3.22,1.47s-2.35-.49-3.22-1.47c-.09-.1-.18-.21-.26-.32v1.58h-1.47Zm7.04-6.97c-.63-.67-1.4-1.01-2.32-1.01s-1.69,.34-2.32,1.01c-.62,.67-.93,1.45-.93,2.35s.31,1.68,.93,2.35c.63,.67,1.4,1.01,2.32,1.01s1.69-.34,2.32-1.01c.62-.67,.93-1.45,.93-2.35s-.31-1.68-.93-2.35Z"/><path d="M1624.71,123.87c-.95,.94-2.09,1.41-3.41,1.41s-2.46-.47-3.41-1.41c-.95-.93-1.42-2.06-1.42-3.4s.47-2.47,1.42-3.41c.95-.94,2.08-1.42,3.41-1.42s2.47,.47,3.41,1.42c.95,.95,1.42,2.08,1.42,3.41s-.47,2.47-1.42,3.4Zm-1.04-5.77c-.66-.66-1.45-.99-2.37-.99s-1.71,.33-2.37,.99c-.66,.66-.99,1.45-.99,2.37s.33,1.69,.99,2.35c.66,.66,1.45,.99,2.37,.99s1.71-.33,2.37-.99c.66-.66,.99-1.44,.99-2.35s-.33-1.71-.99-2.37Z"/><path d="M1632.31,117.34c-.38,0-.71,.11-.98,.33-.27,.22-.5,.48-.68,.8-.35,.61-.53,1.29-.53,2.05v4.62h-1.47v-9.24h1.47v1.91l.06-.38c.49-1.15,1.26-1.72,2.29-1.72,.32,0,.63,.06,.92,.19v1.91c-.34-.31-.7-.46-1.08-.46Z"/><path d="M1634.02,115.89h2.31v-3.59h1.47v3.59h2.29v1.36h-2.29v7.87h-1.47v-7.87h-2.31v-1.36Z"/><path d="M1649.43,125.13v-1.58c-.08,.11-.17,.21-.26,.32-.87,.98-1.95,1.47-3.22,1.47s-2.35-.49-3.22-1.47c-.85-.95-1.27-2.07-1.27-3.36s.42-2.41,1.27-3.36c.87-.98,1.95-1.47,3.22-1.47s2.35,.49,3.22,1.47c.09,.1,.18,.21,.26,.32v-1.58h1.47v9.24h-1.47Zm-.93-6.97c-.63-.67-1.4-1.01-2.32-1.01s-1.69,.34-2.32,1.01c-.62,.67-.93,1.45-.93,2.35s.31,1.68,.93,2.35c.63,.67,1.4,1.01,2.32,1.01s1.69-.34,2.32-1.01c.62-.67,.93-1.45,.93-2.35s-.31-1.68-.93-2.35Z"/><path d="M1661.4,125.13v-1.58c-.08,.11-.17,.21-.26,.32-.87,.98-1.95,1.47-3.22,1.47s-2.35-.49-3.22-1.47c-.85-.95-1.27-2.07-1.27-3.36s.42-2.41,1.27-3.36c.87-.98,1.95-1.47,3.22-1.47s2.35,.49,3.22,1.47c.09,.1,.18,.21,.26,.32v-8.09h1.47v15.75h-1.47Zm-.93-6.97c-.63-.67-1.4-1.01-2.32-1.01s-1.69,.34-2.32,1.01c-.62,.67-.93,1.45-.93,2.35s.31,1.68,.93,2.35c.63,.67,1.4,1.01,2.32,1.01s1.69-.34,2.32-1.01c.62-.67,.93-1.45,.93-2.35s-.31-1.68-.93-2.35Z"/><path d="M1673.63,123.87c-.95,.94-2.09,1.41-3.41,1.41s-2.46-.47-3.41-1.41c-.95-.93-1.42-2.06-1.42-3.4s.47-2.47,1.42-3.41c.94-.94,2.08-1.42,3.41-1.42s2.47,.47,3.41,1.42c.95,.95,1.42,2.08,1.42,3.41s-.47,2.47-1.42,3.4Zm-1.04-5.77c-.66-.66-1.45-.99-2.37-.99s-1.71,.33-2.37,.99c-.66,.66-.99,1.45-.99,2.37s.33,1.69,.99,2.35c.66,.66,1.45,.99,2.37,.99s1.71-.33,2.37-.99c.66-.66,.99-1.44,.99-2.35s-.33-1.71-.99-2.37Z"/><path d="M1583.76,168.67c-.86,.8-1.93,1.21-3.2,1.21h-3.11v5.65h-1.47v-14.28h4.58c1.26,0,2.33,.4,3.2,1.2,.89,.81,1.33,1.85,1.33,3.11s-.45,2.29-1.33,3.12Zm-2.99-.22c.82,0,1.5-.28,2.04-.83,.55-.56,.82-1.26,.82-2.11s-.26-1.53-.78-2.06c-.52-.53-1.21-.8-2.08-.8h-3.32v5.79h3.32Z"/><path d="M1587.09,175.53v-15.75h1.47v15.75h-1.47Z"/><path d="M1599.06,175.53v-1.58c-.08,.11-.17,.21-.26,.32-.87,.98-1.95,1.47-3.22,1.47s-2.35-.49-3.22-1.47c-.85-.95-1.27-2.07-1.27-3.36s.42-2.41,1.27-3.36c.87-.98,1.95-1.47,3.22-1.47s2.35,.49,3.22,1.47c.09,.1,.18,.21,.26,.32v-1.58h1.47v9.24h-1.47Zm-.94-6.97c-.62-.67-1.4-1.01-2.32-1.01s-1.69,.34-2.32,1.01c-.62,.67-.94,1.45-.94,2.35s.31,1.68,.94,2.35c.62,.67,1.4,1.01,2.32,1.01s1.69-.34,2.32-1.01c.62-.67,.94-1.45,.94-2.35s-.31-1.68-.94-2.35Z"/><path d="M1610.06,169.76c0-.6-.14-1.12-.41-1.54-.27-.43-.72-.64-1.35-.64s-1.14,.12-1.53,.36-.71,.55-.96,.93c-.44,.69-.66,1.63-.66,2.8v3.86h-1.47v-9.24h1.47v1.59c.31-.52,.7-.94,1.18-1.26,.5-.34,1.09-.51,1.74-.51s1.19,.09,1.6,.28c.41,.19,.75,.45,1.03,.78,.56,.66,.84,1.52,.84,2.59v5.77h-1.47v-5.77Z"/><path d="M1616.13,163.76c0,.26-.09,.48-.27,.66-.18,.18-.4,.27-.66,.27s-.48-.09-.66-.27-.27-.4-.27-.66,.09-.48,.27-.66,.4-.27,.66-.27,.48,.09,.66,.27c.18,.18,.27,.4,.27,.66Zm-1.66,11.77v-9.24h1.47v9.24h-1.47Z"/><path d="M1622.87,161.15c-.49,0-.81,.11-.97,.34s-.23,.5-.23,.82v3.99h2.46v1.36h-2.46v7.87h-1.47v-7.87h-1.87v-1.36h1.87v-3.57c0-.94,.22-1.66,.66-2.17,.44-.51,1.18-.77,2.21-.77h1.05v1.36h-1.26Z"/><path d="M1628.1,163.76c0,.26-.09,.48-.27,.66s-.4,.27-.66,.27-.48-.09-.66-.27c-.18-.18-.27-.4-.27-.66s.09-.48,.27-.66c.18-.18,.4-.27,.66-.27s.48,.09,.66,.27,.27,.4,.27,.66Zm-1.66,11.77v-9.24h1.47v9.24h-1.47Z"/><path d="M1638.18,169.61c-.25-.59-.64-1.06-1.18-1.43s-1.07-.55-1.62-.55-1.01,.09-1.41,.26c-.39,.18-.73,.41-1.02,.71-.62,.65-.94,1.42-.94,2.3s.31,1.67,.94,2.32c.62,.65,1.38,.98,2.28,.98,.59,0,1.13-.15,1.63-.46,.5-.31,.89-.72,1.17-1.24h1.66c-.52,1.48-1.52,2.48-3,2.99-.46,.16-.99,.24-1.58,.24s-1.17-.13-1.74-.39c-.57-.26-1.07-.61-1.49-1.05-.91-.96-1.37-2.09-1.37-3.39s.46-2.44,1.37-3.38c.92-.95,2.04-1.43,3.36-1.43,1.06,0,2.01,.33,2.87,.99,.82,.63,1.38,1.47,1.67,2.52h-1.6Z"/><path d="M1649.43,175.53v-1.58c-.08,.11-.17,.21-.26,.32-.87,.98-1.95,1.47-3.22,1.47s-2.35-.49-3.22-1.47c-.85-.95-1.27-2.07-1.27-3.36s.42-2.41,1.27-3.36c.87-.98,1.95-1.47,3.22-1.47s2.35,.49,3.22,1.47c.09,.1,.18,.21,.26,.32v-1.58h1.47v9.24h-1.47Zm-.93-6.97c-.63-.67-1.4-1.01-2.32-1.01s-1.69,.34-2.32,1.01c-.62,.67-.93,1.45-.93,2.35s.31,1.68,.93,2.35c.63,.67,1.4,1.01,2.32,1.01s1.69-.34,2.32-1.01c.62-.67,.93-1.45,.93-2.35s-.31-1.68-.93-2.35Z"/><path d="M1661.4,175.53v-1.58c-.08,.11-.17,.21-.26,.32-.87,.98-1.95,1.47-3.22,1.47s-2.35-.49-3.22-1.47c-.85-.95-1.27-2.07-1.27-3.36s.42-2.41,1.27-3.36c.87-.98,1.95-1.47,3.22-1.47s2.35,.49,3.22,1.47c.09,.1,.18,.21,.26,.32v-8.09h1.47v15.75h-1.47Zm-.93-6.97c-.63-.67-1.4-1.01-2.32-1.01s-1.69,.34-2.32,1.01c-.62,.67-.93,1.45-.93,2.35s.31,1.68,.93,2.35c.63,.67,1.4,1.01,2.32,1.01s1.69-.34,2.32-1.01c.62-.67,.93-1.45,.93-2.35s-.31-1.68-.93-2.35Z"/><path d="M1673.63,174.27c-.95,.94-2.09,1.41-3.41,1.41s-2.46-.47-3.41-1.41c-.95-.93-1.42-2.06-1.42-3.4s.47-2.47,1.42-3.41c.94-.95,2.08-1.42,3.41-1.42s2.47,.47,3.41,1.42c.95,.94,1.42,2.08,1.42,3.41s-.47,2.47-1.42,3.4Zm-1.04-5.77c-.66-.66-1.45-.99-2.37-.99s-1.71,.33-2.37,.99c-.66,.66-.99,1.45-.99,2.37s.33,1.69,.99,2.35c.66,.66,1.45,.99,2.37,.99s1.71-.33,2.37-.99c.66-.66,.99-1.44,.99-2.35s-.33-1.71-.99-2.37Z"/></g></svg>